<svg width="82" height="62" viewBox="0 0 82 62" fill="none" xmlns="http://www.w3.org/2000/svg">
<g clip-path="url(#clip0_46_242)">
<path d="M1 1H81V61H1V1Z" fill="white"/>
<path d="M39.475 50.825C39.4652 50.8182 39.4568 50.8097 39.45 50.8H39.4375L39.275 50.625L38.8 50.0625L38.1875 49.275L38.1125 49.1625L37.3375 48.925L36.7625 48.6625L37.0625 48.325L38.1125 48.7625L38.8875 48.925L40.325 49.9875L39.9125 50.35C39.7657 50.4868 39.6279 50.6329 39.5 50.7875L39.5875 50.725L39.6875 50.8L39.4875 50.825H39.475ZM34.15 49.225C33.4452 49.2187 32.7548 49.0245 32.15 48.6625C32.15 48.6625 32.2375 48.5 32.4375 48.3625C32.6375 48.2125 32.9875 48.05 33.5625 48.0375C34.2375 48.0375 35.0625 48.275 36 48.7125C35.4398 49.0433 34.8005 49.216 34.15 49.2125V49.225ZM31.2125 48.575C31.0875 48.575 30.9625 48.525 30.8875 48.45C30.8166 48.3635 30.7693 48.2602 30.75 48.15C30.7168 48.0109 30.7042 47.8677 30.7125 47.725C30.7646 47.7065 30.8197 47.698 30.875 47.7C31.125 47.7 31.325 47.9125 31.4125 48.125C31.4625 48.25 31.475 48.35 31.4375 48.4375C31.4125 48.5125 31.3125 48.5625 31.2125 48.5625V48.575ZM36.375 47.975C34.6375 47.725 33.9 47.1 33.5875 46.6125C33.2625 46.1 33.3375 45.6125 33.3375 45.6125C33.3375 45.6125 33.4375 45.5875 33.5875 45.5875C34.0625 45.5875 35.2375 45.825 36.375 47.9625V47.975ZM32.8125 47.625C32.075 47.625 31.5125 47.5 31.1375 47.25C30.9772 47.1493 30.8475 47.0066 30.7625 46.8375C30.7357 46.7738 30.7188 46.7063 30.7125 46.6375C30.9975 46.5187 31.3037 46.4592 31.6125 46.4625C32.0586 46.4785 32.4972 46.5829 32.9027 46.7695C33.3082 46.9562 33.6727 47.2215 33.975 47.55C33.55 47.6 33.1625 47.625 32.8125 47.625ZM29.225 47.5C28.45 47.5 27.375 47.25 26.7 46.5875C26.7 46.5875 27.4375 46.4 28.25 46.375H28.4C29.1375 46.375 29.7 46.5125 30.075 46.8C30.2 46.9 30.275 46.9875 30.2875 47.075C30.3 47.15 30.2625 47.225 30.1875 47.2875C30.0125 47.4125 29.7125 47.4875 29.2875 47.4875H29.225V47.5ZM26.6875 46.1875C26.6392 46.1866 26.5916 46.1749 26.5484 46.1532C26.5051 46.1316 26.4673 46.1006 26.4375 46.0625C26.3853 45.988 26.351 45.9024 26.3375 45.8125C26.3 45.6375 26.3125 45.4625 26.3125 45.45C26.3519 45.4328 26.3945 45.4243 26.4375 45.425C26.55 45.425 26.6375 45.4875 26.6875 45.55C26.7635 45.6194 26.8233 45.7048 26.8625 45.8C26.8875 45.9125 26.9 46 26.8625 46.075C26.8625 46.125 26.7875 46.2 26.7 46.2L26.6875 46.1875ZM32.55 46.0625C32.425 46.0625 32.3 46.0125 32.225 45.9375C32.1541 45.851 32.1068 45.7477 32.0875 45.6375C32.0543 45.4984 32.0417 45.3552 32.05 45.2125C32.1021 45.194 32.1572 45.1855 32.2125 45.1875C32.4625 45.1875 32.675 45.4 32.75 45.6125C32.8 45.7375 32.8125 45.8375 32.7875 45.925C32.75 46 32.6625 46.05 32.5375 46.05L32.55 46.0625ZM29.7 45.9375C28.125 45.8875 27.3 45.4375 26.9 45.0625C26.7257 44.9118 26.5815 44.7294 26.475 44.525C26.4125 44.4 26.3875 44.3 26.3875 44.275C26.3875 44.25 26.5375 44.225 26.7625 44.225H26.8125C27.3375 44.225 28.425 44.45 29.6875 45.9375H29.7ZM31.4 45.7875C30.5004 45.6897 29.6639 45.2781 29.0375 44.625C28.8069 44.3727 28.6323 44.0745 28.525 43.75C28.525 43.75 28.675 43.7125 28.9 43.7C28.9417 43.6985 28.9833 43.6985 29.025 43.7C29.65 43.7125 30.8125 44 31.4 45.7875ZM24.9 45.1625C24.5007 45.1661 24.1023 45.1242 23.7125 45.0375C23.05 44.8625 22.7625 44.6125 22.6375 44.425C22.5864 44.3499 22.5523 44.2646 22.5375 44.175C22.5336 44.1418 22.5336 44.1082 22.5375 44.075C22.5375 44.075 22.975 43.95 23.5875 43.9375C23.8976 43.9296 24.2077 43.9548 24.5125 44.0125C25.1501 44.1469 25.7181 44.5063 26.1125 45.025C26.1125 45.025 25.6125 45.175 24.9 45.175V45.1625ZM27.8375 44.1125C27.7796 44.114 27.7221 44.1037 27.6684 44.0823C27.6146 44.0608 27.5658 44.0285 27.525 43.9875C27.4541 43.901 27.4068 43.7977 27.3875 43.6875C27.3375 43.4875 27.35 43.2875 27.35 43.2625C27.3974 43.2412 27.4482 43.2285 27.5 43.225H27.5125C27.7625 43.225 27.9625 43.45 28.05 43.6625C28.1 43.7875 28.1 43.8875 28.075 43.9625C28.0375 44.05 27.95 44.1 27.8375 44.1V44.1125ZM25.6375 43.8C25.2155 43.6804 24.8118 43.5037 24.4375 43.275C23.8875 42.9375 23.2 42.3375 23.125 41.4L23.25 41.3875H23.2875C23.45 41.3875 23.7875 41.425 24.2 41.7375C24.725 42.1375 25.2 42.8375 25.6375 43.8ZM27.075 43.75C26.7303 43.593 26.4102 43.3867 26.125 43.1375C25.3935 42.5061 24.8234 41.7089 24.4625 40.8125C24.4625 40.8125 24.575 40.75 24.75 40.7375C24.7583 40.7372 24.7667 40.7372 24.775 40.7375H24.825C25.075 40.7375 25.4375 40.85 25.8375 41.2875C26.3125 41.7875 26.725 42.6125 27.0875 43.75H27.075ZM23.3375 43.6375C22.85 43.6375 22.6875 43.3875 22.6375 43.2625C22.5891 43.1438 22.5719 43.0147 22.5875 42.8875C22.6696 42.8693 22.7535 42.8609 22.8375 42.8625C22.9928 42.8576 23.147 42.889 23.288 42.954C23.4291 43.0191 23.553 43.1162 23.65 43.2375C23.675 43.2875 23.75 43.4125 23.6875 43.525C23.6375 43.6 23.525 43.65 23.3375 43.65V43.6375ZM22.275 42.2875C21.8982 42.2916 21.5217 42.2623 21.15 42.2C20.725 42.125 20.4875 41.7625 20.35 41.4625C20.225 41.15 20.175 40.8375 20.175 40.8375C21.5 40.875 22.1375 41.2625 22.425 41.5875C22.6065 41.7743 22.7209 42.0161 22.75 42.275C22.75 42.275 22.55 42.3 22.275 42.3V42.2875ZM23.65 40.9125C23.5432 40.7758 23.443 40.634 23.35 40.4875C23.1875 40.2375 23.05 39.9875 23.05 39.7875C23.05 39.575 23 39.1625 22.975 38.9125L22.9 38.35C22.9375 38.35 23.725 38.65 23.725 39.4C23.725 40.15 23.65 40.9 23.65 40.9V40.9125ZM22.625 40.8375H22.6C21.7425 40.5807 20.9613 40.1171 20.325 39.4875C20.1125 39.2375 19.975 38.8375 19.9375 38.3125C19.9125 37.9375 19.9375 37.625 19.9375 37.5875C19.9823 37.5756 20.0288 37.5714 20.075 37.575C20.25 37.575 20.45 37.65 20.7 37.825C20.9321 37.9893 21.1495 38.1733 21.35 38.375C21.75 38.775 22.0625 39.175 22.0625 39.175C22.1 39.225 22.3125 39.6375 22.5 40.0375C22.5877 40.2212 22.6548 40.414 22.7 40.6125C22.7125 40.6875 22.725 40.7375 22.7 40.7875C22.6941 40.8082 22.6807 40.826 22.6625 40.8375C22.646 40.8412 22.629 40.8412 22.6125 40.8375H22.625Z" fill="#435125"/>
<path d="M36.7375 50.825C36.7473 50.8182 36.7557 50.8097 36.7625 50.8H36.775L36.9375 50.625L37.4125 50.0625L38.025 49.275L38.1 49.1625L38.875 48.925L39.45 48.6625L39.15 48.325L38.1 48.7625L37.325 48.925L35.8875 49.9875L36.3 50.35C36.4468 50.4868 36.5846 50.6329 36.7125 50.7875L36.625 50.725L36.525 50.8L36.725 50.825H36.7375ZM42.0625 49.225C42.7674 49.2187 43.4578 49.0245 44.0625 48.6625C44.0625 48.6625 43.975 48.5 43.775 48.3625C43.575 48.2125 43.225 48.05 42.65 48.0375C41.975 48.0375 41.15 48.275 40.2125 48.7125C40.7727 49.0433 41.412 49.216 42.0625 49.2125V49.225ZM45 48.575C45.125 48.575 45.25 48.525 45.325 48.45C45.3959 48.3635 45.4433 48.2602 45.4625 48.15C45.4957 48.0109 45.5084 47.8677 45.5 47.725C45.4479 47.7065 45.3928 47.698 45.3375 47.7C45.0875 47.7 44.8875 47.9125 44.8 48.125C44.75 48.25 44.7375 48.35 44.775 48.4375C44.8 48.5125 44.9 48.5625 45 48.5625V48.575ZM39.8375 47.975C41.575 47.725 42.3125 47.1 42.625 46.6125C42.95 46.1 42.875 45.6125 42.875 45.6125C42.875 45.6125 42.775 45.5875 42.625 45.5875C42.15 45.5875 40.975 45.825 39.8375 47.9625V47.975ZM43.4 47.625C44.1375 47.625 44.7 47.5 45.075 47.25C45.2353 47.1493 45.365 47.0066 45.45 46.8375C45.4768 46.7738 45.4937 46.7063 45.5 46.6375C45.215 46.5187 44.9088 46.4592 44.6 46.4625C44.1539 46.4785 43.7153 46.5829 43.3098 46.7695C42.9043 46.9562 42.5398 47.2215 42.2375 47.55C42.6625 47.6 43.05 47.625 43.4 47.625ZM46.9875 47.5C47.7625 47.5 48.8375 47.25 49.5125 46.5875C49.5125 46.5875 48.775 46.4 47.9625 46.375H47.8125C47.075 46.375 46.5125 46.5125 46.1375 46.8C46.0125 46.9 45.9375 46.9875 45.925 47.075C45.9125 47.15 45.95 47.225 46.025 47.2875C46.2 47.4125 46.5 47.4875 46.925 47.4875H46.9875V47.5ZM49.525 46.1875C49.5734 46.1866 49.6209 46.1749 49.6641 46.1532C49.7074 46.1316 49.7453 46.1006 49.775 46.0625C49.8273 45.988 49.8615 45.9024 49.875 45.8125C49.9125 45.6375 49.9 45.4625 49.9 45.45C49.8606 45.4328 49.818 45.4243 49.775 45.425C49.6625 45.425 49.575 45.4875 49.525 45.55C49.449 45.6194 49.3893 45.7048 49.35 45.8C49.325 45.9125 49.3125 46 49.35 46.075C49.35 46.125 49.425 46.2 49.5125 46.2L49.525 46.1875ZM43.6625 46.0625C43.7875 46.0625 43.9125 46.0125 43.9875 45.9375C44.0584 45.851 44.1058 45.7477 44.125 45.6375C44.1582 45.4984 44.1709 45.3552 44.1625 45.2125C44.1104 45.194 44.0553 45.1855 44 45.1875C43.75 45.1875 43.5375 45.4 43.4625 45.6125C43.4125 45.7375 43.4 45.8375 43.425 45.925C43.4625 46 43.55 46.05 43.675 46.05L43.6625 46.0625ZM46.5125 45.9375C48.0875 45.8875 48.9125 45.4375 49.3125 45.0625C49.4869 44.9118 49.6311 44.7294 49.7375 44.525C49.8 44.4 49.825 44.3 49.825 44.275C49.825 44.25 49.675 44.225 49.45 44.225H49.4C48.875 44.225 47.7875 44.45 46.525 45.9375H46.5125ZM44.8125 45.7875C45.7122 45.6897 46.5486 45.2781 47.175 44.625C47.4056 44.3727 47.5803 44.0745 47.6875 43.75C47.6875 43.75 47.5375 43.7125 47.3125 43.7C47.2709 43.6985 47.2292 43.6985 47.1875 43.7C46.5625 43.7125 45.4 44 44.8125 45.7875ZM51.3125 45.1625C51.7118 45.1661 52.1102 45.1242 52.5 45.0375C53.1625 44.8625 53.45 44.6125 53.575 44.425C53.6261 44.3499 53.6602 44.2646 53.675 44.175C53.679 44.1418 53.679 44.1082 53.675 44.075C53.675 44.075 53.2375 43.95 52.625 43.9375C52.3149 43.9296 52.0048 43.9548 51.7 44.0125C51.0624 44.1469 50.4944 44.5063 50.1 45.025C50.1 45.025 50.6 45.175 51.3125 45.175V45.1625ZM48.375 44.1125C48.4329 44.114 48.4904 44.1037 48.5442 44.0823C48.5979 44.0608 48.6467 44.0285 48.6875 43.9875C48.7584 43.901 48.8058 43.7977 48.825 43.6875C48.875 43.4875 48.8625 43.2875 48.8625 43.2625C48.8151 43.2412 48.7644 43.2285 48.7125 43.225H48.7C48.45 43.225 48.25 43.45 48.1625 43.6625C48.1125 43.7875 48.1125 43.8875 48.1375 43.9625C48.175 44.05 48.2625 44.1 48.375 44.1V44.1125ZM50.575 43.8C50.997 43.6804 51.4007 43.5037 51.775 43.275C52.325 42.9375 53.0125 42.3375 53.0875 41.4L52.9625 41.3875H52.925C52.7625 41.3875 52.425 41.425 52.0125 41.7375C51.4875 42.1375 51.0125 42.8375 50.575 43.8ZM49.1375 43.75C49.4823 43.593 49.8023 43.3867 50.0875 43.1375C50.8191 42.5061 51.3891 41.7089 51.75 40.8125C51.75 40.8125 51.6375 40.75 51.4625 40.7375C51.4542 40.7372 51.4459 40.7372 51.4375 40.7375H51.3875C51.1375 40.7375 50.775 40.85 50.375 41.2875C49.9 41.7875 49.4875 42.6125 49.125 43.75H49.1375ZM52.875 43.6375C53.3625 43.6375 53.525 43.3875 53.575 43.2625C53.6235 43.1438 53.6407 43.0147 53.625 42.8875C53.543 42.8693 53.4591 42.8609 53.375 42.8625C53.2198 42.8576 53.0655 42.889 52.9245 42.954C52.7835 43.0191 52.6595 43.1162 52.5625 43.2375C52.5375 43.2875 52.4625 43.4125 52.525 43.525C52.575 43.6 52.6875 43.65 52.875 43.65V43.6375ZM53.9375 42.2875C54.3144 42.2916 54.6908 42.2623 55.0625 42.2C55.4875 42.125 55.725 41.7625 55.8625 41.4625C55.9875 41.15 56.0375 40.8375 56.0375 40.8375C54.7125 40.875 54.075 41.2625 53.7875 41.5875C53.606 41.7743 53.4917 42.0161 53.4625 42.275C53.4625 42.275 53.6625 42.3 53.9375 42.3V42.2875ZM52.5625 40.9125C52.6694 40.7758 52.7695 40.634 52.8625 40.4875C53.025 40.2375 53.1625 39.9875 53.1625 39.7875C53.1625 39.575 53.2125 39.1625 53.2375 38.9125L53.3125 38.35C53.275 38.35 52.4875 38.65 52.4875 39.4C52.4875 40.15 52.5625 40.9 52.5625 40.9V40.9125ZM53.5875 40.8375H53.6125C54.47 40.5807 55.2513 40.1171 55.8875 39.4875C56.1 39.2375 56.2375 38.8375 56.275 38.3125C56.3 37.9375 56.275 37.625 56.275 37.5875C56.2302 37.5756 56.1837 37.5714 56.1375 37.575C55.9625 37.575 55.7625 37.65 55.5125 37.825C55.2805 37.9893 55.063 38.1733 54.8625 38.375C54.4625 38.775 54.15 39.175 54.15 39.175C54.1125 39.225 53.9 39.6375 53.7125 40.0375C53.6248 40.2212 53.5577 40.414 53.5125 40.6125C53.5 40.6875 53.4875 40.7375 53.5125 40.7875C53.5184 40.8082 53.5318 40.826 53.55 40.8375C53.5665 40.8412 53.5836 40.8412 53.6 40.8375H53.5875Z" fill="#435125"/>
<path d="M65.875 10.55L65.65 10.6375L65.55 10.675L65.275 10.6625L65 10.7875L64.525 11.1125L64.5125 11.125L64.325 11.175L64.1625 11.1L64.075 11.15L64.0375 11.3375L63.95 11.475L63.8375 11.55L63.4625 11.5875L63.15 11.7625L62.725 11.6375L62.5375 11.725L62.125 12.1L61.9125 12.1875H61.85L61.5625 12.175L61.45 12.2125L61.275 12.375L60.95 12.4L60.8375 12.475L60.675 12.8L60.5 13L60.4 13.0125L60.3 12.975L60.2125 12.9875L60.175 13.2L60.1 13.2875L59.875 13.3625L59.7 13.5125L59.5375 13.5875H59.2875L59.075 13.7125L58.6875 13.7375L58.525 13.8875L58.4875 13.925L58.4125 13.9625L58.2875 14.0375L58.2625 14.0625L58.1125 14.0375L57.9375 14.1L57.8625 14L57.7375 14.0625L57.5875 14.075L57.3875 13.9875L57.225 13.9125L57.1125 13.9375L57.075 14.125V14.15L56.95 14.3L56.7375 14.4375L56.7125 14.475L56.4625 14.8L55.9875 15.3L55.5875 15.5L55.175 15.625L54.8875 15.8625L54.1375 16.2375L52.925 16.8375L52.675 16.9125L52.325 16.9625L51.7 17.2L51.15 17.3625L51.1125 17.375L51.0125 17.4125L50.225 17.65L49.8625 17.6L49.65 17.6875L49.0875 17.625H48.7L48.45 17.675L47.9875 17.9L47.2 18.275L46.95 18.525L46.55 18.725L46.075 18.875V18.675L45.9125 18.725L45.7875 18.7625L45.4125 18.8125H45.2L45.0625 18.775H45.0375L44.2625 19.0375L43.3875 19.125L42.95 19.2625H42.625L42.425 19.325L42.025 19.375L41.875 19.3375L41.85 19.325L40.675 19.375L40.1375 19.3125L39.8875 19.375L39.45 19.225L38.825 19.15L38.675 19.1125L38.35 19.0125L38.2 19.1L38.075 19.1125L37.825 19.0125H37.725L37.5 19.0875L37.375 19.0625L37.25 18.9625L36.9875 18.925L36.8125 18.7875L35.875 18.9125L35.625 18.8375L34.7625 18.5875H34.6375L34.4625 18.7125L34.2125 18.8125L33.975 18.8625L33.675 18.875L33.325 18.7875L32.975 18.6125L32.8375 18.575L32.5375 18.6125H32.45L31.9 18.325L31.2 17.8875L30.725 17.65L30.5375 17.625L30.5125 17.7125L30.6 17.9875L30.6375 18.275V18.525L30.625 18.6875L30.6625 18.825L30.8375 19.025L30.9125 19.2125L30.9625 19.7375V20.275L30.875 21.125L30.85 21.25L30.75 21.7L30.6625 22.1125L30.3 23.2L30.2125 23.325L29.9625 23.4875L29.425 23.8625L29.025 24.0875L28.9 24.1375L28.575 24.1625H28.375L28.125 24.025L27.875 23.9625L27.55 23.725L27.2 23.65L26.8 23.425L26.7 23.3L26.4875 23.275L26.1875 23.1875L26.075 23.15L26 23.1375L25.625 23.125L25.2625 22.9625L25.075 22.9125H24.825L24.5625 23.0375L24.425 23.0875L24.25 23.025H24.125L24 23.2375L23.975 23.275L23.875 23.325H23.6625L23.5625 23.3625L23.425 23.425L23.3 23.475L23.2375 23.5H23.2L23.1375 23.525H23.0625L22.9125 23.45L22.8375 23.4125L22.7125 23.3875L22.65 23.425L22.6375 23.6625L22.575 23.8L22.375 23.975L22.175 24.15L22.05 24.35L21.675 25.1875L21.4375 25.525L21.375 25.6125L21.125 25.875L20.9125 26.0375L20.425 26.4125L19.9625 26.6L19.5625 26.675H19.3625L18.9875 26.625L18.6625 26.525L18.2875 26.3L17.9 25.975L17.3125 25.4125L17.2375 25.3625L17.2125 25.35L17.0375 25.225H16.9L16.85 25.325L16.8125 25.45L16.7875 25.5625L16.725 26.1875V26.225L16.7625 26.4875L17.2125 27.1125L17.3375 27.4375L17.3625 27.475L17.45 27.625L17.525 27.75L17.6875 28.2L17.575 28.45L17.625 28.625L17.5 28.725L17.475 28.875L17.8625 29.375L17.95 29.5875L17.8625 29.8875L17.7 30.0625L17.6625 30.1L17.6875 30.225L17.8625 30.4L18.175 30.675L18.3375 31.075L18.4625 31.2L18.6125 31.1625L18.6875 31.225H18.8125L18.9375 31.35L19.0125 31.375L19.1375 31.4375L19.2375 31.5625L19.25 31.9625L19.4375 32.4375V32.75L19.5625 32.9375L19.5875 33.0875L19.525 33.5L19.675 33.625L19.825 33.6L19.925 33.6125L20.0875 33.75L20.2875 34.05L20.4875 34.025L20.6125 34.075L21.2 34.6125L21.325 34.6875L21.4375 34.7375L21.5625 34.8625L21.7375 34.7375H21.7625L21.9625 34.7125L22.05 34.775L22.225 34.8875H22.4375L22.9375 35.0375L23.1375 35.0875L23.5625 35.35L23.75 35.4625L23.85 35.55L24 35.675L24.275 35.8L24.525 35.85L24.65 35.875L24.7625 35.9125L25.2875 36.125L25.575 36.1875L25.825 36.2875L26.025 36.35H26.175L26.375 36.1875H26.5625L26.725 36.2125L26.8875 36.1875L27.1375 36.0375L27.175 35.9625L27.35 35.8875L27.95 35.8125L28.125 35.8625L28.575 35.675L28.875 35.75L29.125 35.6625L29.7125 35.7875L29.8625 35.9L30.0375 36.0875H30.25L30.1625 36.225L30.4125 36.5L30.65 36.8375L30.6625 36.8875L30.825 37.375L30.95 37.55L31.0375 37.7875V37.9375L30.9125 38.05L30.8875 38.1V38.125L30.9125 38.1875L30.9625 38.1625L31.05 38.1125L31.175 38.0875L31.375 38.1125L31.5125 38.125L31.725 38.025L31.875 37.95L32.1 38.05H32.35L32.4625 38.0875L32.7625 38.225L32.9125 38.2375L32.9625 38.2L33 38.125L32.9875 38.025L32.8625 37.8875L32.6125 37.5875L32.5125 37.4375L32.4375 37.225L32.4125 36.95L32.3875 36.7625L32.425 36.5125L32.4875 36.425L32.5375 36.225L32.55 36.175L32.7 35.9875L33.075 35.7375L33.475 35.3875L33.7875 35.175L34.1125 35.0375V35L34.1625 35.0125L34.9875 34.725L35.3625 34.6625L37.8625 34.8375L37.95 34.8125L38.0375 34.575L38.075 34.5375L38.1125 34.5125L38.3875 34.3875L38.5125 34.3625L38.8625 34.45L39.0125 34.4875L39.25 34.3625H39.4125L39.75 34.175H39.9625L40.05 34.15L40.4625 33.85L40.85 33.7375L40.95 33.6875L40.9875 33.6625L41.4 33.45L41.65 33.25L41.875 33.125L42.125 33.075L42.75 33.025L42.8875 32.8125L43.1625 32.775L43.325 32.5875L43.5125 32.5125L43.65 32.3125L43.775 32.15L43.925 32.0625L44.4375 32.025L45.0375 32.1L45.125 32.05L45.25 31.5625L45.4 31.475L45.775 30.9125V30.7125L45.7875 30.5375L45.85 30.2875L45.8125 29.8625L45.8625 29.4125L46.1 28.85L46.3125 28.625L46.65 28.3875L46.825 28.3125L47.075 28.275H47.1L47.1625 28.25H48.3125L48.6 28.2375L49.3125 28.3625H49.3625L49.6 28.45L49.875 28.6625L50.175 28.95L50.225 29L50.4125 29.0875L50.475 29.1125L50.625 29.0875L50.85 28.9625L51.025 28.8375L51.25 28.7125V28.6875L51.3875 28.5L51.4375 28.4125L51.8875 28.2375L52.4125 28.2125L52.475 28.175H52.5L52.6375 28H52.7625L53.0875 28.125L53.3 28.075L53.475 28.1375L53.6125 28.125L53.8625 28.0875L54.15 28.2875L54.3125 28.3125L54.875 28.6375H54.925L54.95 28.65L55.0125 28.625L55.1125 28.6H55.125L55.1375 28.6125L55.2125 28.7L55.3 28.7125L55.4 28.5875L55.3625 28.5125L55.35 28.4875L55.1375 28.45L54.9625 28.1375L55.1375 27.95L54.8625 27.625L54.8125 27.5625V27.55L54.7125 27.4L54.2375 26.675L53.6125 26.175L53.4 26.0125L53.325 25.95L52.9875 25.6125L52.75 25.3L52.725 25.2375L52.675 25.125L52.5375 24.825L52.2875 24.6375L52.0875 24.4125L51.6625 23.8375L51.6 23.75L51.5 23.6875H51.2875L51.275 23.6625H51.2625V23.65L51.3625 23.55L51.4875 23.525L51.525 23.4125L51.3125 22.8V22.775L51.3 22.5875L51.4625 21.7L51.4875 21.5875L51.7875 21L51.9625 20.85L52.1625 20.4625L52.3375 20.2125L52.5 20.05L52.525 20.0375L52.8125 19.8625L53.0625 19.825L53.3 19.7875L53.7125 19.9125H54.0875L54.175 19.9L54.35 19.875L54.6375 19.7875L54.775 19.7L54.85 19.6L55 19.1L55.05 18.9375L55.1375 18.7625L55.675 18.15L56.075 17.775L56.975 17.125L57.4125 16.8625L57.6375 16.725L59.65 15.825L60.175 15.3L60.45 15.025L60.925 14.7L61.4875 14.4625L61.9875 14.0875L62.0875 13.95L62.2125 13.5125L62.3375 13.4875L62.425 13.275L62.4625 13.2125L62.85 12.9375L62.9 12.9125L64.4375 12.1375L64.6625 12.175L64.7875 11.9875L65.225 11.9125H65.3125L65.425 11.85L65.5125 11.6875V11.65L65.525 11.225L65.625 11.1125L65.675 10.8375L65.725 10.7625L65.775 10.7L65.9 10.6125L65.875 10.5625V10.55Z" fill="#D47600"/>
</g>
<rect x="0.5" y="0.5" width="81" height="61" stroke="black"/>
<defs>
<clipPath id="clip0_46_242">
<rect x="1" y="1" width="80" height="60" fill="white"/>
</clipPath>
</defs>
</svg>
