<svg width="82" height="62" viewBox="0 0 82 62" fill="none" xmlns="http://www.w3.org/2000/svg">
<g clip-path="url(#clip0_46_530)">
<path fill-rule="evenodd" clip-rule="evenodd" d="M1 1H115V5.61725H1V1ZM1 10.2344H115V14.8516H1V10.2344ZM1 19.457H115V24.0859H1V19.457ZM1 28.6914H115V33.3086H1V28.6914ZM1 37.9258H115V42.543H1V37.9258ZM1 47.1484H115V51.7656H1V47.1484ZM1 56.3828H115V61H1V56.3828Z" fill="#BD3D44"/>
<path fill-rule="evenodd" clip-rule="evenodd" d="M1 5.61725H115V10.2344H1V5.61725ZM1 14.8515H115V19.457H1V14.8515ZM1 24.0742H115V28.6914H1V24.0742ZM1 33.3086H115V37.9258H1V33.3086ZM1 42.543H115V47.1601H1V42.543ZM1 51.7656H115V56.3829H1V51.7656Z" fill="white"/>
<path fill-rule="evenodd" clip-rule="evenodd" d="M1 1H46.5976V33.3086H1V1Z" fill="#192F5D"/>
<path fill-rule="evenodd" clip-rule="evenodd" d="M4.79687 2.38287L5.21875 3.66H6.55475L5.4765 4.44525L5.88675 5.73425L4.79687 4.93737L3.71875 5.7225L4.12887 4.44525L3.03912 3.66H4.3985L4.79687 2.38287ZM12.4024 2.38287L12.8125 3.66H14.1601L13.0702 4.44525L13.4805 5.73425L12.4024 4.93737L11.3125 5.7225L11.7226 4.44525L10.6445 3.66H11.9805L12.4024 2.38287ZM19.9961 2.38287L20.418 3.66012H21.7422L20.6641 4.44537L21.0741 5.73437L19.9844 4.9375L18.9062 5.72262L19.3164 4.44537L18.2265 3.66012H19.5742L19.9961 2.38287ZM27.6016 2.38287L28.0116 3.66012H29.3594L28.2695 4.44537L28.6914 5.73437L27.6015 4.9375L26.5117 5.72262L26.9336 4.44537L25.8437 3.66012H27.1797L27.6016 2.38287ZM35.1954 2.38287L35.6172 3.66012H36.9531L35.875 4.44537L36.2851 5.73437L35.1953 4.9375L34.1171 5.72262L34.5274 4.44537L33.4492 3.66012H34.7851L35.1954 2.38287ZM42.8008 2.38287L43.2109 3.66012H44.5586L43.4688 4.44537L43.8906 5.73437L42.8008 4.9375L41.7109 5.72262L42.1328 4.44537L41.043 3.66012H42.3906L42.8008 2.38287ZM8.6055 5.617L9.01562 6.8945H10.3632L9.27337 7.6795L9.67187 8.957L8.61712 8.17175L7.52737 8.95687L7.914 7.67962L6.85937 6.89437H8.19537L8.6055 5.617ZM16.1992 5.617L16.6211 6.8945H17.957L16.8671 7.6795L17.2891 8.957L16.1991 8.17175L15.1094 8.95687L15.5312 7.67962L14.4414 6.89437H15.789L16.1992 5.617ZM23.8047 5.617L24.2147 6.8945H25.5625L24.4726 7.6795L24.8827 8.957L23.8046 8.17175L22.7149 8.95687L23.125 7.67975L22.0469 6.8945H23.3829L23.8047 5.617ZM31.3985 5.617L31.8204 6.8945H33.1562L32.0664 7.6795L32.4882 8.957L31.3984 8.17175L30.3202 8.95687L30.7305 7.67962L29.6406 6.89437H31L31.3985 5.617ZM39.0039 5.617L39.414 6.8945H40.7617L39.6719 7.6795L40.082 8.957L39.0039 8.17175L37.914 8.95687L38.3242 7.67962L37.2461 6.89437H38.582L39.0039 5.617ZM4.79687 8.84L5.21875 10.1407H6.55475L5.4765 10.9259L5.88675 12.2032L4.79687 11.4064L3.71875 12.2032L4.12887 10.9141L3.03912 10.1291H4.3985L4.79687 8.84ZM12.4024 8.84L12.8125 10.1287H14.1601L13.0702 10.9139L13.4805 12.1914L12.4024 11.3944L11.3125 12.1912L11.7226 10.9022L10.6445 10.1171H11.9805L12.4024 8.84ZM19.9961 8.84L20.418 10.129H21.7422L20.6641 10.9141L21.0741 12.1916L19.9844 11.3946L18.9062 12.1915L19.3164 10.9025L18.2265 10.1174H19.5742L19.9961 8.84ZM27.6016 8.84L28.0116 10.129H29.3594L28.2695 10.9141L28.6914 12.1916L27.6015 11.3946L26.5117 12.1915L26.9336 10.9025L25.8437 10.1174H27.1797L27.6016 8.84ZM35.1954 8.84L35.6172 10.129H36.9531L35.875 10.914L36.2851 12.1915L35.1953 11.3945L34.1171 12.1914L34.5274 10.9024L33.4492 10.1172H34.7851L35.1954 8.84ZM42.8008 8.84L43.2109 10.129H44.5586L43.4688 10.9141L43.8906 12.1916L42.8008 11.3946L41.7109 12.1915L42.1328 10.9025L41.043 10.1174H42.3906L42.8008 8.84ZM8.6055 12.0742L9.01562 13.3516H10.3632L9.27337 14.1366L9.68362 15.4257L8.6055 14.6289L7.51562 15.414L7.92575 14.1367L6.84762 13.3516H8.18375L8.6055 12.0742ZM16.1992 12.0742L16.6211 13.3516H17.957L16.8671 14.1366L17.2891 15.4257L16.1991 14.6289L15.1094 15.414L15.5312 14.1367L14.4414 13.3516H15.789L16.1992 12.0742ZM23.8047 12.0742L24.2147 13.3516H25.5625L24.4726 14.1366L24.8827 15.4257L23.8046 14.6289L22.7149 15.414L23.125 14.1367L22.0469 13.3516H23.3829L23.8047 12.0742ZM31.3985 12.0742L31.8204 13.3516H33.1562L32.0781 14.1366L32.4882 15.4257L31.3984 14.6289L30.3202 15.414L30.7305 14.1367L29.6406 13.3516H31L31.3985 12.0742ZM39.0039 12.0742L39.414 13.3516H40.7617L39.6719 14.1366L40.082 15.4257L39.0039 14.6289L37.914 15.414L38.3242 14.1367L37.2461 13.3516H38.582L39.0039 12.0742ZM4.79687 15.3086L5.21875 16.586H6.55475L5.4765 17.371L5.88675 18.6601L4.79687 17.8632L3.71875 18.6484L4.12887 17.3711L3.03912 16.586H4.3985L4.79687 15.3086ZM12.4024 15.3086L12.8125 16.586H14.1601L13.0702 17.371L13.4805 18.6485L12.4024 17.8632L11.3125 18.6484L11.7226 17.3711L10.6445 16.586H11.9805L12.4024 15.3086ZM19.9961 15.3086L20.418 16.586H21.7422L20.6641 17.371L21.0741 18.6601L19.9844 17.8632L18.9062 18.6484L19.3164 17.3711L18.2265 16.586H19.5742L19.9961 15.3086ZM27.6016 15.3086L28.0116 16.586H29.3594L28.2695 17.371L28.6914 18.6601L27.6015 17.8632L26.5117 18.6484L26.9336 17.3711L25.8437 16.586H27.1797L27.6016 15.3086ZM35.1954 15.3086L35.6172 16.586H36.9531L35.875 17.371L36.2851 18.6601L35.1953 17.8632L34.1171 18.6484L34.5274 17.3711L33.4492 16.586H34.7851L35.1954 15.3086ZM42.8008 15.3086L43.2109 16.586H44.5586L43.4688 17.371L43.8906 18.6601L42.8008 17.8632L41.7109 18.6484L42.1328 17.3711L41.043 16.586H42.3906L42.8008 15.3086ZM8.6055 18.543L9.01562 19.8204H10.3632L9.27337 20.6054L9.68362 21.8829L8.6055 21.086L7.51562 21.8829L7.92575 20.5937L6.84762 19.8086H8.18375L8.6055 18.543ZM16.1992 18.543L16.6211 19.8204H17.957L16.8671 20.6054L17.2891 21.8829L16.1991 21.086L15.1094 21.8829L15.5312 20.5937L14.4414 19.8086H15.789L16.1992 18.543ZM23.8047 18.543L24.2147 19.8204H25.5625L24.4726 20.6054L24.8827 21.8829L23.8046 21.086L22.7149 21.8829L23.125 20.5937L22.0469 19.8086H23.3829L23.8047 18.543ZM31.3985 18.543L31.8204 19.8204H33.1562L32.0781 20.6054L32.4882 21.8829L31.3984 21.086L30.3202 21.8829L30.7305 20.5937L29.6406 19.8086H31L31.3985 18.543ZM39.0039 18.543L39.414 19.8204H40.7617L39.6719 20.6054L40.082 21.8829L39.0039 21.086L37.914 21.8829L38.3242 20.5937L37.2461 19.8086H38.582L39.0039 18.543ZM4.79687 21.7656L5.21875 23.0547H6.55475L5.4765 23.8397L5.88675 25.1055L4.79687 24.3204L3.71875 25.1054L4.12887 23.8281L3.03912 23.043H4.3985L4.79687 21.7656ZM12.4024 21.7656L12.8125 23.0547H14.1601L13.0702 23.8397L13.4922 25.1055L12.4022 24.3204L11.3125 25.1054L11.7344 23.8281L10.6445 23.043H11.9805L12.4024 21.7656ZM19.9961 21.7656L20.418 23.0547H21.7422L20.6641 23.8397L21.0741 25.1055L19.9844 24.3204L18.9062 25.1054L19.3164 23.8281L18.2265 23.043H19.5742L19.9961 21.7656ZM27.6016 21.7656L28.0116 23.0547H29.3594L28.2695 23.8397L28.6914 25.1055L27.6015 24.3204L26.5117 25.1054L26.9336 23.8281L25.8437 23.043H27.1797L27.6016 21.7656ZM35.1954 21.7656L35.6172 23.0547H36.9531L35.875 23.8397L36.2851 25.1055L35.1953 24.3204L34.1171 25.1054L34.5274 23.8281L33.4492 23.043H34.7851L35.1954 21.7656ZM42.8008 21.7656L43.2109 23.0547H44.5586L43.4688 23.8397L43.8906 25.1055L42.8008 24.3204L41.7109 25.1054L42.1328 23.8281L41.043 23.043H42.3906L42.8008 21.7656ZM8.6055 25L9.01562 26.2774H10.3632L9.27337 27.0625L9.68362 28.3516L8.6055 27.5547L7.51562 28.3397L7.92575 27.0625L6.84762 26.2774H8.18375L8.6055 25ZM16.1992 25L16.6211 26.2774H17.957L16.8671 27.0625L17.2891 28.3516L16.1991 27.5547L15.1094 28.3397L15.5312 27.0625L14.4414 26.2774H15.789L16.1992 25ZM23.8047 25L24.2147 26.2774H25.5625L24.4726 27.0625L24.8827 28.3516L23.8046 27.5547L22.7149 28.3397L23.125 27.0625L22.0469 26.2774H23.3829L23.8047 25ZM31.3985 25L31.8204 26.2774H33.1562L32.0781 27.0625L32.4882 28.3516L31.3984 27.5547L30.3202 28.3397L30.7305 27.0625L29.6406 26.2774H31L31.3985 25ZM39.0039 25L39.414 26.2774H40.7617L39.6719 27.0625L40.082 28.3516L39.0039 27.5547L37.914 28.3397L38.3242 27.0625L37.2461 26.2774H38.582L39.0039 25ZM4.79687 28.2344L5.21875 29.5117H6.55475L5.4765 30.2969L5.88675 31.5742L4.79687 30.7891L3.71875 31.5741L4.12887 30.2851L3.03912 29.5H4.3985L4.79687 28.2344ZM12.4024 28.2344L12.8125 29.5117H14.1601L13.0702 30.2969L13.4922 31.5742L12.4022 30.7891L11.3125 31.5741L11.7344 30.2851L10.6445 29.5H11.9805L12.4024 28.2344ZM19.9961 28.2344L20.418 29.5117H21.7422L20.6875 30.2969L21.0976 31.5742L20.0077 30.7891L18.9296 31.5741L19.3399 30.2851L18.25 29.5H19.5976L19.9961 28.2344ZM27.6016 28.2344L28.0116 29.5117H29.3594L28.2695 30.2969L28.6914 31.5742L27.6015 30.7891L26.5117 31.5741L26.9336 30.2851L25.8437 29.5H27.1797L27.6016 28.2344ZM35.1954 28.2344L35.6172 29.5117H36.9531L35.875 30.2969L36.2851 31.5742L35.1953 30.7891L34.1171 31.5741L34.5274 30.2851L33.4492 29.5H34.7851L35.1954 28.2344ZM42.8008 28.2344L43.2109 29.5117H44.5586L43.4688 30.2969L43.8906 31.5742L42.8008 30.7891L41.7109 31.5741L42.1328 30.2851L41.043 29.5H42.3906L42.8008 28.2344Z" fill="white"/>
</g>
<rect x="0.5" y="0.5" width="81" height="61" stroke="black"/>
<defs>
<clipPath id="clip0_46_530">
<rect x="1" y="1" width="80" height="60" fill="white"/>
</clipPath>
</defs>
</svg>
