<svg width="82" height="62" viewBox="0 0 82 62" fill="none" xmlns="http://www.w3.org/2000/svg">
<g clip-path="url(#clip0_46_196)">
<path d="M19.7664 1H62.2234V61H19.7665L19.7664 1Z" fill="white"/>
<path d="M-1.45624 1H19.7664V61H-1.45624V1ZM62.2235 1H83.446V61H62.2353L62.2235 1ZM26.1298 29.9923L24.4656 30.5548L32.1414 37.293C32.7274 39.0156 31.9423 39.5195 31.4383 40.4336L39.7586 39.3789L39.5594 47.7578L41.2938 47.7109L40.907 39.3906L49.2508 40.3867C48.7351 39.2969 48.2781 38.7226 48.7469 36.9883L56.411 30.6015L55.075 30.1094C53.9734 29.2656 55.5438 26.043 55.7781 24.0039C55.7781 24.0039 51.3133 25.539 51.0203 24.7305L49.8719 22.5391L45.8055 27.0156C45.3601 27.1211 45.1726 26.9452 45.0673 26.5702L46.9423 17.2188L43.9656 18.8945C43.7195 19.0118 43.4734 18.918 43.3094 18.625L40.4383 12.8827L37.4851 18.8477C37.2625 19.0586 37.0399 19.082 36.8524 18.9415L34.0164 17.3477L35.7274 26.6171C35.5868 26.9921 35.2586 27.0859 34.8836 26.8867L30.9813 22.4688C30.4774 23.2891 30.1375 24.6132 29.4579 24.918C28.7899 25.1992 26.5281 24.3555 25.0164 24.0274C25.532 25.8906 27.1493 28.9844 26.1298 30.0039V29.9923Z" fill="#D52B1E"/>
</g>
<rect x="0.5" y="0.5" width="81" height="61" stroke="black"/>
<defs>
<clipPath id="clip0_46_196">
<rect x="1" y="1" width="80" height="60" fill="white"/>
</clipPath>
</defs>
</svg>
