<svg width="82" height="62" viewBox="0 0 82 62" fill="none" xmlns="http://www.w3.org/2000/svg">
<g clip-path="url(#clip0_46_199)">
<path d="M1 1H81V61H1V1Z" fill="#000066"/>
<path fill-rule="evenodd" clip-rule="evenodd" d="M38.475 50.0625L33.0125 50.5375L33.7625 55.9625L30 52L26.2375 55.9625L26.9875 50.5375L21.525 50.0625L26.2375 47.275L23.2 42.7125L28.325 44.65L30 39.4375L31.6875 44.65L36.8125 42.7125L33.775 47.275M61.825 55.0625L60.5 53.0875L62.725 53.925L63.45 51.6625L64.175 53.925L66.4 53.0875L65.0875 55.0625L67.1375 56.275L64.7625 56.4875L65.0875 58.85L63.4625 57.1125L61.8125 58.85L62.1375 56.4875L59.7625 56.2875M61.8125 19.8L60.5 17.825L62.725 18.6625L63.45 16.4L64.175 18.6625L66.4 17.825L65.0875 19.8L67.1375 21.025L64.7625 21.225L65.0875 23.5875L63.4625 21.8625L61.8125 23.575L62.1375 21.225L59.7625 21.025M48.6 34.125L47.2875 32.15L49.5125 32.9875L50.2375 30.725L50.975 32.9875L53.2 32.15L51.875 34.125L53.925 35.3375L51.55 35.55L51.8875 37.9125L50.2375 36.175L48.6125 37.9125L48.925 35.55L46.55 35.35M73.5875 30.6L72.25 28.625L74.475 29.4625L75.2 27.2L75.9375 29.4625L78.1625 28.625L76.85 30.6L78.8875 31.8125L76.5125 32.025L76.8375 34.375L75.2125 32.65L73.5625 34.375L73.8875 32.025L71.5125 31.8125M68.75 41L67.4625 41.8125L67.825 40.325L66.6625 39.35L68.175 39.225L68.75 37.825L69.3375 39.2375L70.85 39.35L69.6875 40.325L70.05 41.8125" fill="white"/>
<path d="M1 1H41V31H1V1Z" fill="#000066"/>
<path d="M5.6875 1L20.9375 12.3125L36.125 1H41V4.875L26 16.0625L41 27.1875V31H36L21 19.8125L6.0625 31H1V27.25L15.9375 16.125L1 5V1H5.6875Z" fill="white"/>
<path d="M27.5 18.5625L41 28.5V31L24.0625 18.5625H27.5ZM16 19.8125L16.375 22L4.375 31H1L16 19.8125ZM41 1V1.1875L25.4375 12.9375L25.5625 10.1875L37.875 1H41ZM1 1L15.9375 12H12.1875L1 3.625V1Z" fill="#C8102E"/>
<path d="M16.0625 1V31H26.0625V1H16.0625ZM1 11V21H41V11H1Z" fill="white"/>
<path d="M1 13.0625V19.0625H41V13.0625H1ZM18.0625 1V31H24.0625V1H18.0625Z" fill="#C8102E"/>
<g clip-path="url(#clip1_46_199)">
<path fill-rule="evenodd" clip-rule="evenodd" d="M1 1H81V61H1V1Z" fill="white"/>
<path fill-rule="evenodd" clip-rule="evenodd" d="M1 1H27.6625V61H1V1Z" fill="#009A49"/>
<path fill-rule="evenodd" clip-rule="evenodd" d="M54.3375 1H81V61H54.3375V1Z" fill="#FF7900"/>
</g>
</g>
<rect x="0.5" y="0.5" width="81" height="61" stroke="black"/>
<defs>
<clipPath id="clip0_46_199">
<rect x="1" y="1" width="80" height="60" fill="white"/>
</clipPath>
<clipPath id="clip1_46_199">
<rect width="80" height="60" fill="white" transform="translate(1 1)"/>
</clipPath>
</defs>
</svg>
