<svg width="82" height="62" viewBox="0 0 82 62" fill="none" xmlns="http://www.w3.org/2000/svg">
<g clip-path="url(#clip0_46_389)">
<path fill-rule="evenodd" clip-rule="evenodd" d="M1 1H81V61H1V1Z" fill="#00247D"/>
<path d="M62.3031 14.3986V16.2947L66.0954 14.3986H62.3031Z" fill="white"/>
<path d="M63.1111 16.5059L61.9965 14.9719L66.1791 14.2769L63.1111 16.5059Z" fill="white"/>
<path d="M62.3032 14.3986V16.2947L58.5108 14.3986H62.3032Z" fill="white"/>
<path d="M61.4952 16.5059L62.6097 14.9719L58.4272 14.2769L61.4952 16.5059Z" fill="white"/>
<path d="M63.3851 15.1847L61.5818 15.7706L64.557 18.7914L63.3851 15.1847Z" fill="white"/>
<path d="M61.6305 16.6043L62.7451 15.0703L64.6986 18.8334L61.6305 16.6043Z" fill="white"/>
<path d="M61.2211 15.1847L63.0245 15.7706L62.393 11.578L61.2211 15.1847Z" fill="white"/>
<path d="M63.475 15.0675L61.6717 15.6534L62.3032 11.4608L63.475 15.0675Z" fill="white"/>
<path d="M61.2211 15.1847L63.0244 15.7706L60.0492 18.7914L61.2211 15.1847Z" fill="white"/>
<path d="M62.9757 16.6043L61.8611 15.0703L59.9076 18.8334L62.9757 16.6043Z" fill="white"/>
<path d="M62.3031 14.7845V16.0374L64.809 14.7845H62.3031Z" fill="#CC142B"/>
<path d="M62.837 16.177L62.1005 15.1633L64.8643 14.7041L62.837 16.177Z" fill="#CC142B"/>
<path d="M62.3032 14.7845V16.0374L59.7972 14.7845H62.3032Z" fill="#CC142B"/>
<path d="M61.7693 16.177L62.5057 15.1633L59.7419 14.7041L61.7693 16.177Z" fill="#CC142B"/>
<path d="M63.0181 15.3039L61.8265 15.6911L63.7925 17.6872L63.0181 15.3039Z" fill="#CC142B"/>
<path d="M61.8587 16.242L62.5952 15.2283L63.886 17.715L61.8587 16.242Z" fill="#CC142B"/>
<path d="M61.5881 15.3039L62.7798 15.6911L62.3625 12.9206L61.5881 15.3039Z" fill="#CC142B"/>
<path d="M63.0775 15.2265L61.8859 15.6137L62.3031 12.8432L63.0775 15.2265Z" fill="#CC142B"/>
<path d="M61.5881 15.3039L62.7797 15.6911L60.8137 17.6872L61.5881 15.3039Z" fill="#CC142B"/>
<path d="M62.7475 16.242L62.011 15.2283L60.7202 17.715L62.7475 16.242Z" fill="#CC142B"/>
<path d="M72.2399 23.15L72.2399 24.8373L75.6145 23.15L72.2399 23.15Z" fill="white"/>
<path d="M72.9588 25.0253L71.967 23.6602L75.689 23.0417L72.9588 25.0253Z" fill="white"/>
<path d="M72.2398 23.15L72.2398 24.8374L68.8651 23.15L72.2398 23.15Z" fill="white"/>
<path d="M71.5208 25.0253L72.5126 23.6602L68.7907 23.0417L71.5208 25.0253Z" fill="white"/>
<path d="M73.2027 23.8495L71.598 24.371L74.2455 27.059L73.2027 23.8495Z" fill="white"/>
<path d="M71.6414 25.1128L72.6332 23.7477L74.3715 27.0964L71.6414 25.1128Z" fill="white"/>
<path d="M71.277 23.8496L72.8818 24.371L72.3199 20.6401L71.277 23.8496Z" fill="white"/>
<path d="M73.2827 23.7453L71.6779 24.2667L72.2398 20.5358L73.2827 23.7453Z" fill="white"/>
<path d="M71.277 23.8495L72.8817 24.371L70.2341 27.059L71.277 23.8495Z" fill="white"/>
<path d="M72.8383 25.1128L71.8465 23.7477L70.1081 27.0964L72.8383 25.1128Z" fill="white"/>
<path d="M72.2398 23.5359L72.2398 24.5801L74.3281 23.5359L72.2398 23.5359Z" fill="#CC142B"/>
<path d="M72.6847 24.6964L72.071 23.8516L74.3742 23.4689L72.6847 24.6964Z" fill="#CC142B"/>
<path d="M72.2398 23.5359L72.2398 24.5801L70.1515 23.5359L72.2398 23.5359Z" fill="#CC142B"/>
<path d="M71.7949 24.6964L72.4086 23.8516L70.1054 23.4689L71.7949 24.6964Z" fill="#CC142B"/>
<path d="M72.8356 23.9688L71.8426 24.2915L73.4809 25.9549L72.8356 23.9688Z" fill="#CC142B"/>
<path d="M71.8695 24.7505L72.4832 23.9058L73.5589 25.978L71.8695 24.7505Z" fill="#CC142B"/>
<path d="M71.644 23.9688L72.6371 24.2915L72.2894 21.9827L71.644 23.9688Z" fill="#CC142B"/>
<path d="M72.8851 23.9043L71.8921 24.2269L72.2398 21.9182L72.8851 23.9043Z" fill="#CC142B"/>
<path d="M71.644 23.9688L72.637 24.2914L70.9987 25.9549L71.644 23.9688Z" fill="#CC142B"/>
<path d="M72.6101 24.7505L71.9964 23.9058L70.9207 25.978L72.6101 24.7505Z" fill="#CC142B"/>
<path d="M50.7293 26.0516L50.7293 27.9478L54.5216 26.0516L50.7293 26.0516Z" fill="white"/>
<path d="M51.5373 28.159L50.4227 26.625L54.6053 25.9299L51.5373 28.159Z" fill="white"/>
<path d="M50.7294 26.0516L50.7294 27.9478L46.9371 26.0516L50.7294 26.0516Z" fill="white"/>
<path d="M49.9214 28.159L51.0359 26.625L46.8534 25.9299L49.9214 28.159Z" fill="white"/>
<path d="M51.8113 26.8377L50.008 27.4237L52.9832 30.4444L51.8113 26.8377Z" fill="white"/>
<path d="M50.0567 28.2574L51.1713 26.7233L53.1248 30.4864L50.0567 28.2574Z" fill="white"/>
<path d="M49.6473 26.8377L51.4507 27.4237L50.8192 23.231L49.6473 26.8377Z" fill="white"/>
<path d="M51.9013 26.7205L50.0979 27.3065L50.7294 23.1138L51.9013 26.7205Z" fill="white"/>
<path d="M49.6473 26.8377L51.4506 27.4237L48.4754 30.4444L49.6473 26.8377Z" fill="white"/>
<path d="M51.4019 28.2574L50.2874 26.7233L48.3338 30.4864L51.4019 28.2574Z" fill="white"/>
<path d="M50.7293 26.4376L50.7293 27.6905L53.2352 26.4376L50.7293 26.4376Z" fill="#CC142B"/>
<path d="M51.2632 27.8301L50.5267 26.8164L53.2906 26.3572L51.2632 27.8301Z" fill="#CC142B"/>
<path d="M50.7293 26.4375L50.7293 27.6905L48.2234 26.4375L50.7293 26.4375Z" fill="#CC142B"/>
<path d="M50.1954 27.8301L50.9319 26.8164L48.1681 26.3571L50.1954 27.8301Z" fill="#CC142B"/>
<path d="M51.4443 26.957L50.2527 27.3442L52.2187 29.3403L51.4443 26.957Z" fill="#CC142B"/>
<path d="M50.2849 27.8951L51.0214 26.8814L52.3122 29.368L50.2849 27.8951Z" fill="#CC142B"/>
<path d="M50.0143 26.957L51.206 27.3442L50.7887 24.5737L50.0143 26.957Z" fill="#CC142B"/>
<path d="M51.5037 26.8796L50.3121 27.2668L50.7293 24.4963L51.5037 26.8796Z" fill="#CC142B"/>
<path d="M50.0143 26.957L51.2059 27.3442L49.2399 29.3403L50.0143 26.957Z" fill="#CC142B"/>
<path d="M51.1737 27.8951L50.4373 26.8814L49.1464 29.368L51.1737 27.8951Z" fill="#CC142B"/>
<path d="M62.3031 44.3445V46.4495L66.5131 44.3445H62.3031Z" fill="white"/>
<path d="M63.2 46.684L61.9628 44.981L66.606 44.2094L63.2 46.684Z" fill="white"/>
<path d="M62.3032 44.3445V46.4495L58.0932 44.3445H62.3032Z" fill="white"/>
<path d="M61.4062 46.684L62.6435 44.981L58.0003 44.2094L61.4062 46.684Z" fill="white"/>
<path d="M63.5043 45.2172L61.5023 45.8677L64.8052 49.2211L63.5043 45.2172Z" fill="white"/>
<path d="M61.5565 46.7932L62.7938 45.0902L64.9624 49.2677L61.5565 46.7932Z" fill="white"/>
<path d="M61.1019 45.2172L63.1039 45.8677L62.4029 41.2133L61.1019 45.2172Z" fill="white"/>
<path d="M63.6041 45.0871L61.6021 45.7376L62.3031 41.0832L63.6041 45.0871Z" fill="white"/>
<path d="M61.1019 45.2172L63.1039 45.8677L59.801 49.2211L61.1019 45.2172Z" fill="white"/>
<path d="M63.0497 46.7932L61.8124 45.0902L59.6438 49.2677L63.0497 46.7932Z" fill="white"/>
<path d="M62.3031 44.7304V46.1922L65.2267 44.7304H62.3031Z" fill="#CC142B"/>
<path d="M62.926 46.355L62.0668 45.1724L65.2912 44.6366L62.926 46.355Z" fill="#CC142B"/>
<path d="M62.3032 44.7304V46.1922L59.3796 44.7304H62.3032Z" fill="#CC142B"/>
<path d="M61.6803 46.355L62.5395 45.1724L59.315 44.6366L61.6803 46.355Z" fill="#CC142B"/>
<path d="M63.1373 45.3365L61.747 45.7882L64.0407 48.117L63.1373 45.3365Z" fill="#CC142B"/>
<path d="M61.7846 46.4309L62.6439 45.2483L64.1499 48.1493L61.7846 46.4309Z" fill="#CC142B"/>
<path d="M61.4689 45.3365L62.8592 45.7882L62.3724 42.556L61.4689 45.3365Z" fill="#CC142B"/>
<path d="M63.2065 45.2461L61.8163 45.6978L62.3031 42.4656L63.2065 45.2461Z" fill="#CC142B"/>
<path d="M61.4689 45.3365L62.8592 45.7882L60.5655 48.117L61.4689 45.3365Z" fill="#CC142B"/>
<path d="M62.8216 46.4309L61.9623 45.2483L60.4563 48.1493L62.8216 46.4309Z" fill="#CC142B"/>
<path d="M1 1H41V31H1V1Z" fill="#012169"/>
<path d="M5.6875 1L20.9375 12.3125L36.125 1H41V4.875L26 16.0625L41 27.1875V31H36L21 19.8125L6.0625 31H1V27.25L15.9375 16.125L1 5V1H5.6875Z" fill="white"/>
<path d="M27.5 18.5625L41 28.5V31L24.0625 18.5625H27.5ZM16 19.8125L16.375 22L4.375 31H1L16 19.8125ZM41 1V1.1875L25.4375 12.9375L25.5625 10.1875L37.875 1H41ZM1 1L15.9375 12H12.1875L1 3.625V1Z" fill="#C8102E"/>
<path d="M16.0625 1V31H26.0625V1H16.0625ZM1 11V21H41V11H1Z" fill="white"/>
<path d="M1 13.0625V19.0625H41V13.0625H1ZM18.0625 1V31H24.0625V1H18.0625Z" fill="#C8102E"/>
</g>
<rect x="0.5" y="0.5" width="81" height="61" stroke="black"/>
<defs>
<clipPath id="clip0_46_389">
<rect x="1" y="1" width="80" height="60" fill="white"/>
</clipPath>
</defs>
</svg>
