<svg width="82" height="62" viewBox="0 0 82 62" fill="none" xmlns="http://www.w3.org/2000/svg">
<g clip-path="url(#clip0_53_68)">
<path fill-rule="evenodd" clip-rule="evenodd" d="M1 1H81V61H1V1Z" fill="#E30A17"/>
<path fill-rule="evenodd" clip-rule="evenodd" d="M51.875 31.9375C51.875 40.2125 45.05 46.925 36.625 46.925C28.2 46.925 21.375 40.2125 21.375 31.925C21.375 23.6375 28.2 16.95 36.625 16.95C45.05 16.95 51.875 23.6625 51.875 31.9375Z" fill="white"/>
<path fill-rule="evenodd" clip-rule="evenodd" d="M52.625 31.9375C52.625 38.5625 47.175 43.925 40.4375 43.925C33.7 43.925 28.2375 38.55 28.2375 31.925C28.2375 25.3 33.7 19.95 40.4375 19.95C47.175 19.95 52.6376 25.3125 52.6376 31.9375H52.625Z" fill="#E30A17"/>
<path fill-rule="evenodd" clip-rule="evenodd" d="M54.8376 24.9375L54.7126 30.475L49.55 31.875L54.6501 33.6875L54.5251 38.775L57.8376 34.8L62.8625 36.55L59.9626 32.2875L63.5 28.05L58.0625 29.55L54.8376 24.925V24.9375Z" fill="white"/>
</g>
<rect x="0.5" y="0.5" width="81" height="61" stroke="black"/>
<defs>
<clipPath id="clip0_53_68">
<rect x="1" y="1" width="80" height="60" fill="white"/>
</clipPath>
</defs>
</svg>
