<?xml version="1.0" encoding="UTF-8"?>
<!DOCTYPE svg PUBLIC "-//W3C//DTD SVG 1.1//EN" "http://www.w3.org/Graphics/SVG/1.1/DTD/svg11.dtd">

<svg xmlns="http://www.w3.org/2000/svg" version="1.1" width="1280px" height="881px" style="shape-rendering:geometricPrecision; text-rendering:geometricPrecision; image-rendering:optimizeQuality; fill-rule:evenodd; clip-rule:evenodd" xmlns:xlink="http://www.w3.org/1999/xlink">
<g><path style="opacity:0.944" fill="#1475c6" d="M 950.5,-0.5 C 951.167,-0.5 951.833,-0.5 952.5,-0.5C 943.161,21.1388 943.328,42.8054 953,64.5C 957.54,73.6956 962.874,82.3623 969,90.5C 981.238,104.648 993.238,118.982 1005,133.5C 1018.57,154.811 1021.24,177.478 1013,201.5C 1009.27,210.021 1005.94,218.688 1003,227.5C 1000.9,242.06 1007.07,248.894 1021.5,248C 1037.86,242.967 1043.69,232.133 1039,215.5C 1035,200.167 1031,184.833 1027,169.5C 1025.06,146.258 1035.89,133.925 1059.5,132.5C 1066.2,132.087 1071.87,134.254 1076.5,139C 1083.44,139.061 1089.27,141.561 1094,146.5C 1095.71,151.8 1094.88,156.8 1091.5,161.5C 1079.65,154.722 1068.82,156.388 1059,166.5C 1056.93,171.164 1057.6,175.497 1061,179.5C 1062.67,181.833 1064.33,184.167 1066,186.5C 1080.06,199.894 1093.4,213.894 1106,228.5C 1117.83,246.595 1117.16,264.262 1104,281.5C 1092.14,292.515 1078.98,301.682 1064.5,309C 1067.67,312.167 1070.83,315.333 1074,318.5C 1082.17,311.499 1091.33,306.165 1101.5,302.5C 1108.96,286.201 1119.96,272.701 1134.5,262C 1132.56,255.999 1132.06,249.832 1133,243.5C 1134.69,237.131 1137.19,231.131 1140.5,225.5C 1133.37,212.723 1132.87,199.723 1139,186.5C 1143.82,176.684 1149.82,167.684 1157,159.5C 1173.31,142.859 1189.97,126.526 1207,110.5C 1204.65,82.7457 1198.65,55.7457 1189,29.5C 1187.33,26.1667 1185.67,22.8333 1184,19.5C 1187.22,52.9591 1179.89,83.9591 1162,112.5C 1153.3,125.886 1143.64,138.553 1133,150.5C 1123.72,163.067 1117.72,177.067 1115,192.5C 1113.97,201.695 1114.8,210.695 1117.5,219.5C 1115.61,219.703 1114.11,219.037 1113,217.5C 1104.11,198.581 1101.77,178.915 1106,158.5C 1108.36,150.774 1112.03,143.774 1117,137.5C 1128.67,124.5 1140.33,111.5 1152,98.5C 1175.12,69.0267 1182.62,36.0267 1174.5,-0.5C 1174.83,-0.5 1175.17,-0.5 1175.5,-0.5C 1192.25,21.0168 1203.08,45.3501 1208,72.5C 1209.99,82.7805 1211.66,93.1138 1213,103.5C 1230.12,82.6776 1236.12,59.011 1231,32.5C 1240.2,51.096 1245.53,70.7626 1247,91.5C 1247.39,99.5073 1247.89,107.507 1248.5,115.5C 1247.58,129.856 1246.74,144.189 1246,158.5C 1261.66,148.842 1271.99,135.175 1277,117.5C 1277.52,145.464 1266.19,167.131 1243,182.5C 1240.85,190.108 1238.85,197.774 1237,205.5C 1235.55,210.506 1233.72,215.339 1231.5,220C 1240.16,218.005 1248.16,214.338 1255.5,209C 1263.35,202.139 1270.69,195.139 1277.5,188C 1268.14,214.193 1250.47,232.359 1224.5,242.5C 1211.02,265.065 1191.35,278.398 1165.5,282.5C 1155.64,282.106 1146.98,278.773 1139.5,272.5C 1127.45,279.384 1117.45,288.551 1109.5,300C 1139.08,293.774 1169.08,290.441 1199.5,290C 1208.59,281.572 1218.26,273.905 1228.5,267C 1237.99,260.922 1248.32,257.089 1259.5,255.5C 1269.92,255.994 1273.76,261.327 1271,271.5C 1268.31,277.197 1264.48,282.03 1259.5,286C 1239.64,298.386 1217.97,305.386 1194.5,307C 1184.23,315.266 1174.56,324.266 1165.5,334C 1172.71,336.346 1179.71,339.179 1186.5,342.5C 1194.69,337.237 1203.36,332.737 1212.5,329C 1219.9,325.983 1227.24,325.983 1234.5,329C 1239.31,334.276 1239.81,340.11 1236,346.5C 1229.23,354.802 1220.4,359.302 1209.5,360C 1200.27,360.751 1191.1,360.251 1182,358.5C 1176.81,361.179 1171.65,364.012 1166.5,367C 1154.27,371.838 1141.77,372.671 1129,369.5C 1122.76,373.037 1116.26,376.203 1109.5,379C 1105.21,380.048 1100.88,380.882 1096.5,381.5C 1092.81,380.411 1089.14,380.411 1085.5,381.5C 1075.37,401.591 1060.37,406.758 1040.5,397C 1034.71,391.221 1030.04,384.721 1026.5,377.5C 1011.96,379.042 999.294,374.876 988.5,365C 968.503,367.92 950.837,362.92 935.5,350C 918.466,351.328 902.133,348.661 886.5,342C 877.624,335.279 875.791,327.112 881,317.5C 887.828,312.674 894.994,312.174 902.5,316C 912.598,320.46 921.764,326.293 930,333.5C 937.055,330.537 944.221,327.871 951.5,325.5C 943.018,315.85 934.351,306.35 925.5,297C 902.123,292.988 880.457,284.654 860.5,272C 853.832,267.511 849.832,261.344 848.5,253.5C 850.53,243.65 856.53,239.483 866.5,241C 875.768,243.135 884.102,247.135 891.5,253C 902.061,260.555 911.728,269.222 920.5,279C 950.939,282.059 980.606,287.559 1009.5,295.5C 1002.93,283.596 993.93,273.929 982.5,266.5C 968.545,275.548 953.879,276.715 938.5,270C 927.856,264.361 918.69,256.861 911,247.5C 907.028,241.362 902.862,235.362 898.5,229.5C 875.073,217.573 859.407,199.073 851.5,174C 851.667,173.167 851.833,172.333 852,171.5C 861.877,188.045 875.544,200.378 893,208.5C 890.427,195.625 888.093,182.625 886,169.5C 863.833,152.681 853.833,130.347 856,102.5C 860.311,119.773 869.645,133.773 884,144.5C 882.617,113.38 885.617,82.7136 893,52.5C 895.657,42.8476 899.657,33.8476 905,25.5C 899.962,48.981 904.629,70.3143 919,89.5C 919.087,55.7323 929.587,25.7323 950.5,-0.5 Z M 936.5,31.5 C 935.412,49.5612 938.912,66.8945 947,83.5C 953.162,95.1624 959.829,106.496 967,117.5C 978.758,133.347 990.758,149.013 1003,164.5C 1009.32,174.411 1011.32,185.078 1009,196.5C 1005.86,205.577 1002.53,214.577 999,223.5C 996.725,251.473 1009.22,261.64 1036.5,254C 1050.96,244.565 1056.13,231.398 1052,214.5C 1047.82,203.143 1042.82,192.143 1037,181.5C 1026.2,156.086 1034.37,141.419 1061.5,137.5C 1070.93,139.588 1070.77,141.588 1061,143.5C 1054.8,141.702 1052.63,143.868 1054.5,150C 1058.91,150.805 1062.91,149.805 1066.5,147C 1072.1,145.544 1077.76,145.211 1083.5,146C 1088.22,147.043 1090.06,149.876 1089,154.5C 1075.57,149.274 1063.9,151.94 1054,162.5C 1051.12,167.666 1050.79,172.999 1053,178.5C 1060.48,192.969 1069.15,206.635 1079,219.5C 1086.16,230.657 1090.33,242.824 1091.5,256C 1090.74,266.017 1087.57,275.184 1082,283.5C 1075.3,291.872 1067.63,299.205 1059,305.5C 1052.65,300.158 1045.65,295.825 1038,292.5C 1035.66,293.007 1035.16,294.174 1036.5,296C 1043.34,299.25 1049.67,303.25 1055.5,308C 1051.98,311.025 1048.31,313.858 1044.5,316.5C 1036.36,309.26 1027.36,303.26 1017.5,298.5C 1011.23,282.284 1001.73,268.284 989,256.5C 992.111,243.819 990.611,231.652 984.5,220C 992.802,205.995 993.635,191.495 987,176.5C 982.894,166.737 977.56,157.737 971,149.5C 955.63,133.132 940.63,116.465 926,99.5C 924.628,76.0661 928.128,53.3994 936.5,31.5 Z M 919.5,165.5 C 909.896,160.696 900.562,155.363 891.5,149.5C 889.68,118.278 891.513,87.2785 897,56.5C 899.064,78.3594 905.731,98.6927 917,117.5C 917.271,133.536 918.105,149.536 919.5,165.5 Z M 1237.5,64.5 C 1241.42,80.4613 1243.09,96.7946 1242.5,113.5C 1242.87,130.006 1241.54,146.34 1238.5,162.5C 1228.87,167.899 1219.04,172.899 1209,177.5C 1212.3,161.755 1214.3,145.755 1215,129.5C 1229.86,110.434 1237.36,88.7672 1237.5,64.5 Z M 922.5,125.5 C 935.133,138.301 947.633,151.301 960,164.5C 969.777,174.958 977.111,186.958 982,200.5C 982.928,205.02 982.595,209.354 981,213.5C 975.5,206.667 969.333,200.5 962.5,195C 950.596,186.131 938.429,177.631 926,169.5C 923.687,154.925 922.52,140.259 922.5,125.5 Z M 1208.5,136.5 C 1208.98,151.424 1206.65,166.091 1201.5,180.5C 1183.48,189.835 1166.48,200.669 1150.5,213C 1147.96,215.205 1145.79,217.705 1144,220.5C 1142.77,213.161 1143.77,206.161 1147,199.5C 1153.7,189.126 1161.53,179.626 1170.5,171C 1183.81,160.184 1196.47,148.684 1208.5,136.5 Z M 892.5,173.5 C 902.478,181.293 913.145,188.126 924.5,194C 928.179,206.383 934.846,216.716 944.5,225C 949.506,228.336 955.006,229.836 961,229.5C 967.469,229.335 973.635,228.168 979.5,226C 985.541,234.036 987.041,242.869 984,252.5C 974.249,245.705 964.083,239.539 953.5,234C 936.06,225.613 918.393,217.779 900.5,210.5C 896.811,198.388 894.144,186.054 892.5,173.5 Z M 1234.5,186.5 C 1233.4,199.019 1230.06,211.185 1224.5,223C 1203.19,229.879 1182.19,237.546 1161.5,246C 1153.6,249.533 1146.1,253.699 1139,258.5C 1135.98,248.201 1138.32,239.201 1146,231.5C 1164.54,241.593 1180.2,238.259 1193,221.5C 1196.29,215.747 1199.46,209.913 1202.5,204C 1213.71,198.9 1224.38,193.067 1234.5,186.5 Z M 931.5,197.5 C 947.515,203.373 962.182,211.539 975.5,222C 960.172,228.543 947.672,225.043 938,211.5C 935.018,207.202 932.851,202.536 931.5,197.5 Z M 1194.5,207.5 C 1189.77,222.068 1179.94,230.735 1165,233.5C 1161.16,232.721 1157.33,231.887 1153.5,231C 1152.09,230.632 1151.09,229.799 1150.5,228.5C 1163.83,218.838 1178.49,211.838 1194.5,207.5 Z M 909.5,234.5 C 932.183,243.453 954.516,253.287 976.5,264C 966.247,270.439 955.581,271.106 944.5,266C 929.479,259.142 917.812,248.642 909.5,234.5 Z M 860.5,244.5 C 867.063,244.409 873.063,246.242 878.5,250C 890.223,257.886 900.89,267.053 910.5,277.5C 894.507,275.489 879.174,270.655 864.5,263C 860.102,260.271 856.769,256.604 854.5,252C 855.274,248.405 857.274,245.905 860.5,244.5 Z M 1212.5,245.5 C 1213.55,245.351 1214.55,245.517 1215.5,246C 1202.64,263.512 1185.47,273.679 1164,276.5C 1157.21,276.682 1151.05,274.849 1145.5,271C 1167.55,261.598 1189.88,253.098 1212.5,245.5 Z M 1253.5,259.5 C 1258.77,258.571 1263.27,259.904 1267,263.5C 1267.84,267.354 1266.67,270.521 1263.5,273C 1246.97,283.177 1228.97,288.51 1209.5,289C 1222.48,276.499 1237.14,266.666 1253.5,259.5 Z M 934.5,298.5 C 960.25,298.81 985.917,301.644 1011.5,307C 1012,307.5 1012.5,308 1013,308.5C 1014,313.143 1014.33,317.81 1014,322.5C 1013.67,323.167 1013.33,323.833 1013,324.5C 1008.96,323.207 1004.8,322.374 1000.5,322C 990.833,321.333 981.167,321.333 971.5,322C 967.238,322.371 963.071,323.204 959,324.5C 950.608,316.053 942.441,307.386 934.5,298.5 Z M 1162.5,306.5 C 1170.17,306.334 1177.84,306.5 1185.5,307C 1176.36,315.136 1167.53,323.636 1159,332.5C 1140.93,326.675 1122.43,325.008 1103.5,327.5C 1103.28,321.749 1104.28,316.249 1106.5,311C 1125.23,308.376 1143.9,306.876 1162.5,306.5 Z M 1018.5,309.5 C 1026.67,312.166 1034,316.333 1040.5,322C 1037.39,325.06 1034.89,328.56 1033,332.5C 1028.63,329.598 1023.96,327.264 1019,325.5C 1018.5,320.177 1018.33,314.844 1018.5,309.5 Z M 1059.5,311.5 C 1063.52,314.522 1066.85,318.189 1069.5,322.5C 1064.31,328.541 1061.65,335.541 1061.5,343.5C 1062.83,343.5 1064.17,343.5 1065.5,343.5C 1065.81,337.385 1068.15,332.218 1072.5,328C 1073.45,327.383 1074.28,327.549 1075,328.5C 1077.49,331.465 1078.82,334.798 1079,338.5C 1064.83,351.615 1065,364.448 1079.5,377C 1064.2,398.895 1049.2,398.562 1034.5,376C 1049.69,363.796 1050.85,350.629 1038,336.5C 1038.63,332.248 1040.63,328.582 1044,325.5C 1048.6,330.557 1050.77,336.557 1050.5,343.5C 1051.83,343.5 1053.17,343.5 1054.5,343.5C 1055.06,335.588 1053.06,328.422 1048.5,322C 1051.76,318.045 1055.42,314.545 1059.5,311.5 Z M 1098.5,312.5 C 1099.24,312.369 1099.91,312.536 1100.5,313C 1099.69,318.083 1099.19,323.25 1099,328.5C 1094.06,330.203 1089.23,332.203 1084.5,334.5C 1082.42,330.664 1080.08,326.997 1077.5,323.5C 1084.15,319.009 1091.15,315.343 1098.5,312.5 Z M 888.5,317.5 C 902.22,319.86 914.22,325.694 924.5,335C 911.889,338.827 899.556,338.16 887.5,333C 880.488,327.002 880.821,321.835 888.5,317.5 Z M 1220.5,330.5 C 1223.52,330.335 1226.52,330.502 1229.5,331C 1234.12,332.077 1235.62,334.91 1234,339.5C 1224.49,348.54 1213.32,351.373 1200.5,348C 1197.76,347.197 1195.09,346.197 1192.5,345C 1200.93,338.285 1210.27,333.452 1220.5,330.5 Z M 1009.5,332.5 C 1010.38,332.369 1011.04,332.702 1011.5,333.5C 1006.27,344.064 998.603,352.397 988.5,358.5C 982.681,353.182 977.015,347.682 971.5,342C 983.975,337.548 996.642,334.381 1009.5,332.5 Z M 1016.5,333.5 C 1021.57,333.689 1026.23,335.189 1030.5,338C 1025.61,349.401 1024.28,361.235 1026.5,373.5C 1013.47,373.766 1001.8,369.933 991.5,362C 1002.5,354.836 1010.83,345.336 1016.5,333.5 Z M 1095.5,336.5 C 1097.17,336.5 1098.83,336.5 1100.5,336.5C 1104.49,349.338 1112.16,359.505 1123.5,367C 1112.66,374.867 1100.66,377.701 1087.5,375.5C 1090.39,363.906 1090.06,352.406 1086.5,341C 1089.21,338.825 1092.21,337.325 1095.5,336.5 Z M 1105.5,336.5 C 1118.99,338.886 1131.99,342.886 1144.5,348.5C 1139.12,354.046 1133.29,359.046 1127,363.5C 1116.27,357.277 1109.1,348.277 1105.5,336.5 Z M 1034.5,341.5 C 1045.17,351.47 1044.67,361.137 1033,370.5C 1030.84,360.698 1031.34,351.032 1034.5,341.5 Z M 962.5,343.5 C 964.783,343.608 966.783,344.441 968.5,346C 973.167,350.667 977.833,355.333 982.5,360C 968.687,361.7 956.02,358.7 944.5,351C 943.643,350.311 942.977,349.478 942.5,348.5C 949.35,347.069 956.017,345.403 962.5,343.5 Z M 1080.5,343.5 C 1082.07,344.681 1082.9,346.347 1083,348.5C 1084.1,356.691 1083.44,364.691 1081,372.5C 1071.25,362.908 1071.09,353.241 1080.5,343.5 Z M 1149.5,350.5 C 1157.77,352.818 1166.1,354.985 1174.5,357C 1162.06,365.525 1148.4,368.525 1133.5,366C 1132.17,365.333 1132.17,364.667 1133.5,364C 1139.32,360.011 1144.65,355.511 1149.5,350.5 Z"/></g>
<g><path style="opacity:0.988" fill="#1475c6" d="M -0.5,515.5 C -0.5,503.167 -0.5,490.833 -0.5,478.5C 3.03606,447.051 16.3694,420.551 39.5,399C 68.218,378.266 99.8847,372.266 134.5,381C 165.771,389.938 186.104,409.938 195.5,441C 181.205,446.265 166.871,451.432 152.5,456.5C 139.569,424.704 116.569,413.871 83.5,424C 68.3383,431.458 58.1717,443.292 53,459.5C 44.5833,487.676 45.9167,515.343 57,542.5C 72.9519,569.154 95.7852,577.654 125.5,568C 138.073,560.665 146.74,550.165 151.5,536.5C 165.797,541.21 179.963,546.21 194,551.5C 182.063,587.418 157.229,608.251 119.5,614C 62.1417,618.417 23.975,593.584 5,539.5C 2.82553,531.442 0.992197,523.442 -0.5,515.5 Z"/></g>
<g><path style="opacity:0.989" fill="#1475c6" d="M 935.5,389.5 C 936.5,389.5 937.5,389.5 938.5,389.5C 938.5,403.833 938.5,418.167 938.5,432.5C 948.833,432.5 959.167,432.5 969.5,432.5C 969.5,443.833 969.5,455.167 969.5,466.5C 959.167,466.5 948.833,466.5 938.5,466.5C 938.333,492.169 938.5,517.835 939,543.5C 939.182,549.897 939.848,556.23 941,562.5C 943.183,570.189 948.35,573.855 956.5,573.5C 960.787,572.625 965.121,572.292 969.5,572.5C 970.136,585.582 969.469,598.415 967.5,611C 949.643,614.154 932.309,612.488 915.5,606C 904.639,599.462 897.806,589.962 895,577.5C 894.003,571.539 893.337,565.539 893,559.5C 892.5,528.502 892.333,497.502 892.5,466.5C 886.833,466.5 881.167,466.5 875.5,466.5C 875.5,455.167 875.5,443.833 875.5,432.5C 881.167,432.5 886.833,432.5 892.5,432.5C 892.5,423.167 892.5,413.833 892.5,404.5C 907.122,400.072 921.455,395.072 935.5,389.5 Z"/></g>
<g><path style="opacity:0.988" fill="#1475c6" d="M 270.5,428.5 C 301.211,424.899 327.044,434.232 348,456.5C 365.655,481.796 371.988,509.796 367,540.5C 360.783,581.715 337.283,606.215 296.5,614C 265.999,618.279 240.165,609.445 219,587.5C 207.848,573.056 201.182,556.722 199,538.5C 194.47,507.445 201.47,479.445 220,454.5C 233.95,440.109 250.783,431.442 270.5,428.5 Z M 278.5,465.5 C 300.083,464.583 313.583,474.583 319,495.5C 323.862,514.263 323.528,532.929 318,551.5C 308.925,573.863 292.758,581.696 269.5,575C 257.592,569.08 250.092,559.58 247,546.5C 241.895,524.977 243.561,503.977 252,483.5C 258.044,473.273 266.877,467.273 278.5,465.5 Z"/></g>
<g><path style="opacity:0.987" fill="#1475c6" d="M 602.5,428.5 C 647.095,425.874 675.928,445.874 689,488.5C 692.907,503.249 694.407,518.249 693.5,533.5C 654.167,533.5 614.833,533.5 575.5,533.5C 576.809,565.988 593.476,580.154 625.5,576C 635.295,573.191 643.129,567.691 649,559.5C 660.833,563.667 672.667,567.833 684.5,572C 666.663,605.586 638.663,619.586 600.5,614C 566.023,608.509 543.856,589.009 534,555.5C 524.688,521.636 529.355,489.97 548,460.5C 561.738,442.217 579.905,431.55 602.5,428.5 Z M 607.5,465.5 C 632.256,465.25 645.59,477.583 647.5,502.5C 623.5,502.5 599.5,502.5 575.5,502.5C 577.014,482.001 587.681,469.667 607.5,465.5 Z"/></g>
<g><path style="opacity:0.986" fill="#1475c6" d="M 795.5,428.5 C 842.947,425.445 866.114,447.778 865,495.5C 865.5,533.832 865.667,572.165 865.5,610.5C 850.167,610.5 834.833,610.5 819.5,610.5C 819.938,571.143 819.438,531.81 818,492.5C 814.599,470.711 802.099,462.211 780.5,467C 770.86,469.305 764.36,475.138 761,484.5C 759.844,488.123 758.844,491.789 758,495.5C 756.55,533.806 756.05,572.139 756.5,610.5C 741.167,610.5 725.833,610.5 710.5,610.5C 710.5,551.167 710.5,491.833 710.5,432.5C 725.167,432.5 739.833,432.5 754.5,432.5C 754.334,439.841 754.5,447.174 755,454.5C 765.039,440.4 778.539,431.733 795.5,428.5 Z"/></g>
<g><path style="opacity:0.992" fill="#1475c5" d="M 987.5,432.5 C 1001.83,432.5 1016.17,432.5 1030.5,432.5C 1030.33,442.506 1030.5,452.506 1031,462.5C 1037.51,446.482 1049.34,436.982 1066.5,434C 1083.38,432.366 1100.22,432.199 1117,433.5C 1130.67,475.833 1144.33,518.167 1158,560.5C 1171.61,517.845 1185.11,475.179 1198.5,432.5C 1214.5,432.5 1230.5,432.5 1246.5,432.5C 1227.18,494.296 1207.35,555.963 1187,617.5C 1180.58,634.337 1172.58,650.337 1163,665.5C 1156.44,674.738 1148.1,681.738 1138,686.5C 1132.05,674.256 1126.89,661.59 1122.5,648.5C 1125.76,645.058 1128.93,641.391 1132,637.5C 1136.25,628.826 1140.09,619.993 1143.5,611C 1137.51,610.501 1131.51,610.334 1125.5,610.5C 1110.64,565.091 1095.47,519.758 1080,474.5C 1052.63,474.189 1037.29,487.855 1034,515.5C 1033.67,546.833 1033.33,578.167 1033,609.5C 1017.91,610.491 1002.74,610.824 987.5,610.5C 987.5,551.167 987.5,491.833 987.5,432.5 Z"/></g>
<g><path style="opacity:0.99" fill="#1475c6" d="M 365.5,432.5 C 382.167,432.5 398.833,432.5 415.5,432.5C 426.386,474.713 437.886,516.713 450,558.5C 461.484,516.561 472.651,474.561 483.5,432.5C 500.18,432.167 516.847,432.501 533.5,433.5C 514.032,492.378 495.032,551.378 476.5,610.5C 458.59,610.826 440.757,610.492 423,609.5C 403.726,550.513 384.56,491.513 365.5,432.5 Z"/></g>
<g><path style="opacity:0.981" fill="#1475c6" d="M 20.5,609.5 C 27.8333,609.5 35.1667,609.5 42.5,609.5C 42.3333,655.168 42.5,700.835 43,746.5C 46.7928,791.011 70.9594,810.178 115.5,804C 138.891,800.609 153.391,787.442 159,764.5C 160.65,757.933 161.65,751.267 162,744.5C 162.5,699.501 162.667,654.501 162.5,609.5C 169.5,609.5 176.5,609.5 183.5,609.5C 183.667,657.501 183.5,705.501 183,753.5C 176.675,800.32 149.842,823.987 102.5,824.5C 48.7368,821.9 21.5701,793.567 21,739.5C 20.5,696.168 20.3333,652.835 20.5,609.5 Z"/></g>
<g><path style="opacity:0.971" fill="#1475c6" d="M 1125.5,880.5 C 1124.17,880.5 1122.83,880.5 1121.5,880.5C 1119.21,874.93 1117.21,869.263 1115.5,863.5C 1127.7,861.48 1137.54,855.48 1145,845.5C 1150.53,837.773 1155.03,829.44 1158.5,820.5C 1154.89,819.511 1151.23,819.177 1147.5,819.5C 1128.83,770.167 1110.17,720.833 1091.5,671.5C 1080.5,671.5 1069.5,671.5 1058.5,671.5C 1058.03,711.868 1058.53,752.201 1060,792.5C 1061.01,796.843 1063.51,800.01 1067.5,802C 1074.49,802.5 1081.49,802.666 1088.5,802.5C 1088.5,808.5 1088.5,814.5 1088.5,820.5C 1078.43,820.895 1068.43,820.395 1058.5,819C 1050.76,816.256 1045.26,811.089 1042,803.5C 1039.88,798.018 1038.55,792.351 1038,786.5C 1037.5,748.168 1037.33,709.835 1037.5,671.5C 1030.17,671.5 1022.83,671.5 1015.5,671.5C 1015.5,666.167 1015.5,660.833 1015.5,655.5C 1022.83,655.5 1030.17,655.5 1037.5,655.5C 1037.5,643.5 1037.5,631.5 1037.5,619.5C 1044.5,619.5 1051.5,619.5 1058.5,619.5C 1058.5,631.5 1058.5,643.5 1058.5,655.5C 1075.41,655.175 1092.24,655.508 1109,656.5C 1127.47,705.578 1146.14,754.578 1165,803.5C 1184.5,754.5 1204,705.5 1223.5,656.5C 1231.48,655.335 1239.48,655.168 1247.5,656C 1224.59,710.981 1202.09,766.148 1180,821.5C 1172.77,840.132 1161.94,856.299 1147.5,870C 1140.73,874.885 1133.4,878.385 1125.5,880.5 Z"/></g>
<g><path style="opacity:0.972" fill="#1475c6" d="M 278.5,650.5 C 296.061,648.646 312.394,652.146 327.5,661C 339.189,671.545 345.689,684.712 347,700.5C 347.5,740.165 347.667,779.832 347.5,819.5C 340.5,819.5 333.5,819.5 326.5,819.5C 326.667,781.165 326.5,742.832 326,704.5C 323.351,680.514 310.018,668.514 286,668.5C 264.287,668.691 248.953,678.691 240,698.5C 236.904,706.55 235.237,714.884 235,723.5C 234.5,755.498 234.333,787.498 234.5,819.5C 227.833,819.5 221.167,819.5 214.5,819.5C 214.5,764.833 214.5,710.167 214.5,655.5C 220.833,655.5 227.167,655.5 233.5,655.5C 233.334,664.173 233.5,672.84 234,681.5C 239.95,669.55 249.117,661.05 261.5,656C 267.137,653.682 272.803,651.849 278.5,650.5 Z"/></g>
<g><path style="opacity:0.974" fill="#1475c6" d="M 638.5,650.5 C 686.057,648.547 713.224,671.214 720,718.5C 721.123,726.797 721.623,735.13 721.5,743.5C 679.5,743.5 637.5,743.5 595.5,743.5C 595.807,762.935 602.474,779.768 615.5,794C 636.979,809.866 658.979,810.532 681.5,796C 687.882,790.127 692.882,783.294 696.5,775.5C 703.065,777.519 709.399,780.019 715.5,783C 702.67,811.352 680.503,825.186 649,824.5C 612.69,823.845 589.357,806.178 579,771.5C 570.947,740.98 573.947,711.647 588,683.5C 599.724,664.598 616.557,653.598 638.5,650.5 Z M 639.5,668.5 C 665.591,666.126 684.091,676.792 695,700.5C 698.047,708.571 699.881,716.904 700.5,725.5C 665.494,725.833 630.494,725.5 595.5,724.5C 597.972,703.037 607.972,686.203 625.5,674C 630.159,671.842 634.825,670.009 639.5,668.5 Z"/></g>
<g><path style="opacity:0.984" fill="#1374c5" d="M 819.5,650.5 C 823.167,650.5 826.833,650.5 830.5,650.5C 830.5,657.5 830.5,664.5 830.5,671.5C 798.315,672.185 778.481,688.185 771,719.5C 769.583,752.811 769.083,786.144 769.5,819.5C 762.5,819.5 755.5,819.5 748.5,819.5C 748.5,764.833 748.5,710.167 748.5,655.5C 755.167,655.5 761.833,655.5 768.5,655.5C 768.333,667.171 768.5,678.838 769,690.5C 778.656,668.002 795.489,654.669 819.5,650.5 Z"/></g>
<g><path style="opacity:0.973" fill="#1475c6" d="M 885.5,650.5 C 904.142,649.789 922.476,651.789 940.5,656.5C 940.83,663.532 940.497,670.532 939.5,677.5C 917.426,666.212 894.759,664.712 871.5,673C 861.107,680.178 857.941,689.678 862,701.5C 868.402,708.88 876.235,714.38 885.5,718C 903.614,724.056 920.281,732.722 935.5,744C 951.043,761.011 953.543,779.844 943,800.5C 932.343,813.583 918.509,821.083 901.5,823C 880.139,825.267 859.139,823.434 838.5,817.5C 838.17,810.468 838.503,803.468 839.5,796.5C 857.632,804.855 876.632,808.022 896.5,806C 906.282,804.359 914.782,800.192 922,793.5C 930.556,780.03 929.056,767.863 917.5,757C 911.822,753.159 905.822,749.826 899.5,747C 883.345,741.254 868.011,733.921 853.5,725C 836.892,709.083 834.059,690.917 845,670.5C 855.973,658.596 869.473,651.93 885.5,650.5 Z"/></g>
<g><path style="opacity:0.966" fill="#1375c5" d="M 380.5,655.5 C 387.5,655.5 394.5,655.5 401.5,655.5C 401.5,710.167 401.5,764.833 401.5,819.5C 394.5,819.5 387.5,819.5 380.5,819.5C 380.5,764.833 380.5,710.167 380.5,655.5 Z"/></g>
<g><path style="opacity:0.974" fill="#1475c6" d="M 422.5,655.5 C 430.42,655.185 438.253,655.518 446,656.5C 463,703.167 480,749.833 497,796.5C 514.445,749.942 531.612,703.275 548.5,656.5C 556.138,655.503 563.804,655.169 571.5,655.5C 551.204,710.26 530.204,764.76 508.5,819C 500.587,819.814 492.754,819.647 485,818.5C 464.153,764.146 443.32,709.812 422.5,655.5 Z"/></g>
<g><path style="opacity:0.983" fill="#1376c5" d="M 974.5,655.5 C 981.5,655.5 988.5,655.5 995.5,655.5C 995.5,710.167 995.5,764.833 995.5,819.5C 988.5,819.5 981.5,819.5 974.5,819.5C 974.5,764.833 974.5,710.167 974.5,655.5 Z"/></g>
</svg>
