<?xml version="1.0" encoding="UTF-8"?><svg xmlns="http://www.w3.org/2000/svg" width="223.37mm" height="95.37mm" xmlns:xlink="http://www.w3.org/1999/xlink" viewBox="0 0 633.18 270.34"><defs><style>.i{fill:#5f6062;}.i,.j,.k,.l,.m,.n,.o{stroke-width:0px;}.j{fill:url(#b);}.k{fill:url(#c);}.l{fill:url(#e);}.m{fill:url(#f);}.n{fill:url(#d);}.o{fill:url(#g);}</style><linearGradient id="b" x1="250.62" y1="89.04" x2="454.54" y2="89.04" gradientUnits="userSpaceOnUse"><stop offset="0" stop-color="#e4f0d5"/><stop offset=".09" stop-color="#deedcd"/><stop offset=".24" stop-color="#cde6b8"/><stop offset=".41" stop-color="#b2da95"/><stop offset=".6" stop-color="#8dca66"/><stop offset=".73" stop-color="#73bf44"/><stop offset=".76" stop-color="#6bbd44"/><stop offset=".81" stop-color="#56b846"/><stop offset=".87" stop-color="#33b14a"/><stop offset=".94" stop-color="#04a64e"/><stop offset=".95" stop-color="#00a64f"/></linearGradient><linearGradient id="c" x1="248.55" y1="45.1" x2="479.48" y2="45.1" xlink:href="#b"/><linearGradient id="d" x1="249.46" y1="66.92" x2="460.49" y2="66.92" xlink:href="#b"/><linearGradient id="e" x1="224.21" y1="-106.66" x2="330.68" y2="-32.11" gradientTransform="translate(198.67 243.77) rotate(-7.42) scale(1.13 .88) skewX(-11.58)" gradientUnits="userSpaceOnUse"><stop offset=".1" stop-color="#73bf44"/><stop offset=".16" stop-color="#6bba47"/><stop offset=".24" stop-color="#56af51"/><stop offset=".34" stop-color="#339c62"/><stop offset=".46" stop-color="#048279"/><stop offset=".47" stop-color="#00807c"/><stop offset=".63" stop-color="#007874"/><stop offset=".86" stop-color="#036360"/><stop offset=".95" stop-color="#045a57"/></linearGradient><linearGradient id="f" x1="195.15" y1="-144.12" x2="305.62" y2="-144.12" gradientTransform="translate(221.54 190.18) rotate(-3.09) scale(1.11 .9) skewX(-13.69)" gradientUnits="userSpaceOnUse"><stop offset="0" stop-color="#73bf44"/><stop offset=".07" stop-color="#6bba47"/><stop offset=".18" stop-color="#56af51"/><stop offset=".32" stop-color="#339c62"/><stop offset=".47" stop-color="#048279"/><stop offset=".48" stop-color="#00807c"/><stop offset=".63" stop-color="#007874"/><stop offset=".86" stop-color="#036360"/><stop offset=".95" stop-color="#045a57"/></linearGradient><linearGradient id="g" x1="476.63" y1="42.46" x2="602.84" y2="115.33" gradientUnits="userSpaceOnUse"><stop offset="0" stop-color="#73bf44"/><stop offset=".12" stop-color="#60b54c"/><stop offset=".36" stop-color="#319b63"/><stop offset=".59" stop-color="#00807c"/><stop offset=".7" stop-color="#007874"/><stop offset=".88" stop-color="#036360"/><stop offset=".94" stop-color="#045a57"/></linearGradient></defs><g id="a"><path class="i" d="m351.26,192.07c-6.42,0-10.29-4.03-11.86-10.34-7.35,5.99-15.09,10.54-24.79,10.54-10.71,0-17.59-8.38-17.59-17.19,0-13.23,14.97-19.33,24.97-23.91l15.39-7.12c1.55-.79,1.25-2.84,1.25-4.57,0-10.7-3.62-13.54-13.78-13.18-6.65.23-13.48,4.22-16.57,11.58l-9-5.67c6.67-8.99,19.8-11.02,27.45-11.02,17.37,0,25.34,4.94,25.34,23.05v25.98c0,3.94-.22,19.09,6.73,21.83h-7.54Zm-12.48-42.59c-9.4,4.57-27.22,9.23-27.22,21.83,0,5.82,2.34,12.16,12.19,12.16,6.1,0,10.85-4.39,15.03-8.15v-25.83Z"/><path class="i" d="m137.01,192.07c-6.42,0-10.29-4.03-11.87-10.34-7.35,5.99-15.09,10.54-24.79,10.54-10.71,0-17.59-8.38-17.59-17.19,0-13.23,14.96-19.33,24.97-23.91l15.39-7.12c1.55-.79,1.26-2.84,1.26-4.57,0-10.7-3.63-13.54-13.78-13.18-6.66.23-13.48,4.22-16.58,11.58l-9-5.67c6.67-8.99,19.79-11.02,27.46-11.02,17.37,0,25.33,4.94,25.33,23.05v25.98c0,3.94-.21,19.09,6.73,21.83h-7.53Zm-12.49-42.59c-9.39,4.57-27.22,9.23-27.22,21.83,0,5.82,2.34,12.16,12.18,12.16,6.1,0,10.85-4.39,15.03-8.15v-25.83Z"/><path class="i" d="m404.73,135.86c-2.62-6.04-6.42-9.73-14.16-9.73-5.16,0-10.01,2.26-10.01,7.93,0,8.2,8.6,10.3,14.54,13.62,10.8,5.67,20.66,9.78,20.66,23.97,0,12.92-10.75,20.92-23,20.81-5.38-.04-19.44.84-26.18-14.35l6-9.3c2.5,10.1,7.83,18.54,19.4,18.54,6.89,0,13.14-2.73,13.14-10.29,0-9-9.08-11.87-15.8-15.35-9.07-4.73-18.76-9.94-18.76-21.76,0-10.87,8.57-18.76,21.66-18.76,4.85,0,14.01,1.21,18.51,5.46l-6,9.22Z"/><path class="i" d="m68.34,142.59c0-14.86-8.45-21.59-23.3-21.59-11.11,0-19.57,4.54-25.03,14.24h-.31l-.02-11.81H0s5.32,2.94,6.57,8.56c.78,3.61.78,16.54.78,20.92l.06,15.25v23.88h13.22v-45.07c.01-11.42,7.84-19.86,20.04-19.86,14.85,0,14.37,14.21,14.37,25.02l.05,39.91h13.3l-.05-49.45Z"/><path class="i" d="m227.5,192.03v-43.11c0-2.97-.34-14.43-.49-16.86-.44-7.33-7.32-10.22-7.32-10.22h21.1v70.18h-13.29Z"/><path class="i" d="m224.65,102.62c0-4.69,3.74-8.45,8.44-8.45s8.29,3.75,8.29,8.45-3.6,8.29-7.99,8.29c-4.68,0-8.75-3.45-8.75-8.29Z"/><path class="i" d="m197.95,121.92s6.01,2.29,4.18,7.84c-5.2,13.53-15.46,40.28-17.22,45.56l-15.17-37.69c-.63-1.87-1.89-5.08-2.78-7.1-2.95-6.75-5-8.64-10.33-8.64h-12.71s5.89,2.21,11.11,14.48l23.46,55.74h5.86l28.04-70.18c-.99-.01-14.44,0-14.44,0Z"/><path class="i" d="m289.44,126.19v-4.29h-13.56v-18.12l-13.24,4.99-.05,68.2c0,11.73,4.35,15.06,16.02,15.06h7.8c-8.93-4.18-10.53-8.49-10.53-18.34v-47.5h13.56Z"/><path class="j" d="m250.62,62.5s116.27-2.71,180.67,13.63c19.83,4.91,21.81,17.17,22.02,28.37.12,4.77,1.22,11.25,1.22,11.25,0,0-4-20.42-24.98-27.33-70.33-23.81-178.94-25.92-178.94-25.92Z"/><path class="k" d="m474.06,50.51c5.37-4.85,15.73-24.44-22.75-21-96.32,6.36-202.75,21.47-202.75,21.47,0,0,149.48-15.63,204.61-9.02,19.34,2.29,13.35,17.2,12.48,19.15,3.21-5.19,7.29-9.44,8.36-10.52.02-.02.04-.05.06-.07Z"/><path class="n" d="m398.72,50.89c-48.53-1.56-149.26,5.73-149.26,5.73,0,0,103.51-5.18,181.42,6.62,19.33,2.66,24.22,12.17,24.84,19.93.9-3.38,2.17-7.2,3.99-11.36,4.74-15.41-11.67-21.86-60.99-20.92Z"/><path class="l" d="m455.82,121.57s7.68,27.28,43.07,35.17c55.4,12.87,97.69-20.48,97.69-20.48,0,0-17.59,39.9-66.79,41.68-62.38.32-73.96-56.37-73.96-56.37Z"/><path class="m" d="m474.28,50.31s-5,4.83-8.72,10.92c-4.61,12.05,7.94,22.05,28.22,22.97,65-.45,93.3-32.85,93.3-32.85l13.57-51.35s-16.4,31.34-57.36,48.96c-32.14,14.75-65.09,16.03-69.45,8.89-2.62-4.29.44-7.54.44-7.54Z"/><path class="o" d="m459.77,71.67c-2.39,9.42-4.43,37.94,51.85,35.59,74.36-5.5,121.57-59.58,121.57-59.58l-19.47,48.81s-46.21,46.98-112.99,38.14c-45.87-6.2-47.13-37.77-47.13-37.77,0,0-.19-10.75,6.17-25.2Z"/></g><g id="h"><path class="i" d="m25.96,258.37v3.57H6.97v-29.41h18.57v3.57h-14.79v9.2h13.06v3.44h-13.06v9.62h15.21Z"/><path class="i" d="m29.25,253.5v-12.56h3.86v11.85c0,4.16,2.14,6.17,5.12,6.17,2.56,0,5.08-1.72,5.08-5.96v-12.06h3.86v21h-2.9l-.59-2.65h-.34c-.88,1.3-2.6,3.07-6.39,3.07-4.37,0-7.73-3.02-7.73-8.86Z"/><path class="i" d="m63.87,240.52v3.78c-.29-.08-1.09-.17-1.72-.17-2.94,0-5.8,2.02-5.8,6.93v10.88h-3.82v-21h2.9l.59,2.94h.34c1.09-1.6,2.86-3.36,6.18-3.36h1.34Z"/><path class="i" d="m65.75,251.4c0-6.22,4.45-10.88,10.63-10.88s10.67,4.62,10.67,10.92-4.41,10.92-10.63,10.92-10.67-4.62-10.67-10.96Zm17.56.04c0-4.12-2.81-7.6-6.93-7.6s-6.85,3.49-6.85,7.6,2.69,7.6,6.85,7.6,6.93-3.44,6.93-7.6Z"/><path class="i" d="m111.34,251.44c0,6.55-4.24,10.92-9.75,10.92-3.07,0-5.42-1.26-6.6-3.49v11.47h-3.7v-29.41h2.73l.63,2.98h.42c1.22-1.76,3.19-3.4,6.64-3.4,5.46,0,9.62,4.41,9.62,10.92Zm-3.7,0c0-4.45-2.69-7.56-6.43-7.56s-6.26,3.11-6.26,7.56,2.48,7.56,6.26,7.56,6.43-3.11,6.43-7.56Z"/><path class="i" d="m134.11,252.24h-15.92c.25,4.08,2.39,6.93,6.72,6.93,2.39,0,4.62-1.05,5.59-3.32h3.57c-1.09,4.33-4.92,6.51-9.16,6.51-6.39,0-10.33-4.37-10.33-11.05,0-6.3,4.24-10.8,10-10.8s10.04,3.7,9.54,11.72Zm-3.49-2.86c-.08-3.11-2.27-5.8-5.92-5.8-3.44,0-5.75,2.31-6.39,5.8h12.31Z"/></g></svg>