<?xml version="1.0" encoding="UTF-8"?>
<!DOCTYPE svg PUBLIC "-//W3C//DTD SVG 1.1//EN" "http://www.w3.org/Graphics/SVG/1.1/DTD/svg11.dtd">
<svg xmlns="http://www.w3.org/2000/svg" version="1.1" width="1113px" height="362px" style="shape-rendering:geometricPrecision; text-rendering:geometricPrecision; image-rendering:optimizeQuality; fill-rule:evenodd; clip-rule:evenodd" xmlns:xlink="http://www.w3.org/1999/xlink">
<g><path style="opacity:0.91" fill="#007eaf" d="M 98.5,-0.5 C 100.5,-0.5 102.5,-0.5 104.5,-0.5C 104.5,25.8333 104.5,52.1667 104.5,78.5C 102.5,78.5 100.5,78.5 98.5,78.5C 98.5,52.1667 98.5,25.8333 98.5,-0.5 Z"/></g>
<g><path style="opacity:0.892" fill="#007eaf" d="M 63.5,5.5 C 64.7899,6.05773 65.6232,7.05773 66,8.5C 75.6382,31.6097 85.1382,54.7764 94.5,78C 91.2657,81.6447 88.7657,81.1447 87,76.5C 78.2761,54.7188 69.2761,33.0521 60,11.5C 58.9236,8.09429 60.0902,6.09429 63.5,5.5 Z"/></g>
<g><path style="opacity:0.891" fill="#007eaf" d="M 137.5,5.5 C 139.757,5.96166 141.757,6.96166 143.5,8.5C 133.432,32.376 123.766,56.376 114.5,80.5C 111.941,80.6104 109.608,79.9438 107.5,78.5C 117.789,54.2594 127.789,29.926 137.5,5.5 Z"/></g>
<g><path style="opacity:0.852" fill="#007eaf" d="M 29.5,27.5 C 48.9151,45.413 67.9151,63.913 86.5,83C 85,84.5 83.5,86 82,87.5C 63.6667,69.1667 45.3333,50.8333 27,32.5C 27.0579,30.5646 27.8912,28.8979 29.5,27.5 Z"/></g>
<g><path style="opacity:0.931" fill="#027eae" d="M 170.5,27.5 C 173.859,27.6981 175.692,29.3647 176,32.5C 157.833,50.6667 139.667,68.8333 121.5,87C 118.207,86.7025 116.707,84.8691 117,81.5C 135.035,63.6319 152.868,45.6319 170.5,27.5 Z"/></g>
<g><path style="opacity:0.891" fill="#007eaf" d="M 6.5,60.5 C 30.6785,69.5846 54.6785,79.2513 78.5,89.5C 79.8267,95.1203 77.8267,96.6203 72.5,94C 49.7173,84.5198 27.0507,74.8531 4.5,65C 5.26656,63.5295 5.93323,62.0295 6.5,60.5 Z"/></g>
<g><path style="opacity:0.892" fill="#007eaf" d="M 192.5,60.5 C 193.833,60.5 195.167,60.5 196.5,60.5C 196.833,62.5 197.167,64.5 197.5,66.5C 174.085,75.7044 150.752,85.2044 127.5,95C 126.216,95.6838 125.049,95.5171 124,94.5C 123.598,93.1279 123.098,91.7946 122.5,90.5C 145.893,80.4659 169.226,70.4659 192.5,60.5 Z"/></g>
<g><path style="opacity:0.958" fill="#007eaf" d="M 822.5,96.5 C 827.833,96.5 833.167,96.5 838.5,96.5C 838.354,100.519 838.021,104.519 837.5,108.5C 833.236,106.756 829.403,107.423 826,110.5C 824.675,115.401 824.175,120.401 824.5,125.5C 828.167,125.5 831.833,125.5 835.5,125.5C 835.5,129.5 835.5,133.5 835.5,137.5C 831.833,137.5 828.167,137.5 824.5,137.5C 824.5,150.167 824.5,162.833 824.5,175.5C 820.167,175.5 815.833,175.5 811.5,175.5C 811.5,162.833 811.5,150.167 811.5,137.5C 808.167,137.5 804.833,137.5 801.5,137.5C 801.5,133.5 801.5,129.5 801.5,125.5C 804.833,125.5 808.167,125.5 811.5,125.5C 811.123,118.743 811.623,112.076 813,105.5C 814.871,101.006 818.038,98.0064 822.5,96.5 Z"/></g>
<g><path style="opacity:0.926" fill="#007eaf" d="M 386.5,101.5 C 395.207,101.037 398.707,105.037 397,113.5C 394.089,117.277 390.256,118.444 385.5,117C 378.929,111.498 379.262,106.332 386.5,101.5 Z"/></g>
<g><path style="opacity:0.926" fill="#007eaf" d="M 606.5,101.5 C 615.207,101.037 618.707,105.037 617,113.5C 614.089,117.277 610.256,118.444 605.5,117C 598.929,111.498 599.262,106.332 606.5,101.5 Z"/></g>
<g><path style="opacity:0.987" fill="#037fb0" d="M -0.5,102.5 C 28.5019,102.333 57.5019,102.5 86.5,103C 92.49,104.911 97.3233,108.411 101,113.5C 104.737,108.422 109.57,104.922 115.5,103C 144.831,102.5 174.165,102.333 203.5,102.5C 203.667,154.834 203.5,207.168 203,259.5C 200.837,273.489 195.17,285.823 186,296.5C 161.727,322.964 133.894,344.63 102.5,361.5C 101.5,361.5 100.5,361.5 99.5,361.5C 69.3782,344.572 42.2115,323.572 18,298.5C 9.17222,288.175 3.00555,276.508 -0.5,263.5C -0.5,209.833 -0.5,156.167 -0.5,102.5 Z"/></g>
<g><path style="opacity:0.948" fill="#007eaf" d="M 253.5,102.5 C 258.167,102.5 262.833,102.5 267.5,102.5C 267.333,119.503 267.5,136.503 268,153.5C 270.435,160.56 275.435,164.227 283,164.5C 290.709,163.82 295.709,159.82 298,152.5C 298.5,135.837 298.667,119.17 298.5,102.5C 303.167,102.5 307.833,102.5 312.5,102.5C 312.667,120.503 312.5,138.503 312,156.5C 307.691,170.827 298.024,177.827 283,177.5C 269.863,178.018 260.529,172.351 255,160.5C 253.55,141.221 253.05,121.888 253.5,102.5 Z"/></g>
<g><path style="opacity:0.93" fill="#007eaf" d="M 632.5,111.5 C 636.833,111.5 641.167,111.5 645.5,111.5C 645.5,116.167 645.5,120.833 645.5,125.5C 650.167,125.5 654.833,125.5 659.5,125.5C 659.5,129.5 659.5,133.5 659.5,137.5C 654.833,137.5 650.167,137.5 645.5,137.5C 645.334,144.841 645.5,152.174 646,159.5C 646.5,163.668 648.833,165.668 653,165.5C 655.187,165.212 657.354,164.878 659.5,164.5C 659.793,168.437 659.46,172.27 658.5,176C 650.868,178.411 643.534,177.744 636.5,174C 634.396,171.958 633.229,169.458 633,166.5C 632.5,156.839 632.334,147.172 632.5,137.5C 629.167,137.5 625.833,137.5 622.5,137.5C 622.5,133.5 622.5,129.5 622.5,125.5C 625.833,125.5 629.167,125.5 632.5,125.5C 632.5,120.833 632.5,116.167 632.5,111.5 Z"/></g>
<g><path style="opacity:0.962" fill="#007eaf" d="M 347.5,124.5 C 356.745,122.917 363.912,125.917 369,133.5C 370.447,147.427 370.947,161.427 370.5,175.5C 366.167,175.5 361.833,175.5 357.5,175.5C 357.666,165.161 357.5,154.828 357,144.5C 354.951,137.368 350.451,135.201 343.5,138C 341.19,139.637 339.69,141.804 339,144.5C 338.5,154.828 338.334,165.161 338.5,175.5C 334.167,175.5 329.833,175.5 325.5,175.5C 325.5,158.833 325.5,142.167 325.5,125.5C 329.5,125.5 333.5,125.5 337.5,125.5C 337.338,127.527 337.505,129.527 338,131.5C 340.529,128.115 343.696,125.782 347.5,124.5 Z"/></g>
<g><path style="opacity:0.942" fill="#007eaf" d="M 477.5,124.5 C 498.916,123.584 508.916,133.918 507.5,155.5C 495.167,155.5 482.833,155.5 470.5,155.5C 473.232,164.701 479.232,167.868 488.5,165C 491.029,162.971 493.696,161.138 496.5,159.5C 499.869,161.523 502.869,164.023 505.5,167C 496.048,177.195 484.715,179.862 471.5,175C 458.604,167.326 454.104,156.159 458,141.5C 461.909,132.751 468.409,127.084 477.5,124.5 Z M 480.5,134.5 C 487.9,134.405 492.567,137.905 494.5,145C 486.507,145.5 478.507,145.666 470.5,145.5C 471.795,139.876 475.128,136.209 480.5,134.5 Z"/></g>
<g><path style="opacity:0.91" fill="#007eaf" d="M 539.5,124.5 C 542.777,124.216 545.943,124.549 549,125.5C 549.828,129.871 549.661,134.205 548.5,138.5C 541.682,136.044 536.182,137.711 532,143.5C 530.571,154.088 530.071,164.755 530.5,175.5C 525.833,175.5 521.167,175.5 516.5,175.5C 516.5,158.833 516.5,142.167 516.5,125.5C 521.167,125.5 525.833,125.5 530.5,125.5C 530.34,127.199 530.506,128.866 531,130.5C 533.671,128.098 536.505,126.098 539.5,124.5 Z"/></g>
<g><path style="opacity:0.933" fill="#007eaf" d="M 568.5,124.5 C 576.352,123.596 583.685,125.096 590.5,129C 591.574,129.739 592.241,130.739 592.5,132C 590.367,135.3 587.701,138.134 584.5,140.5C 580.278,135.708 575.278,134.542 569.5,137C 567.024,140.416 568.024,142.75 572.5,144C 580.679,144.493 587.512,147.66 593,153.5C 596.009,169.181 589.342,177.181 573,177.5C 564.818,177.823 557.985,174.99 552.5,169C 555.349,165.984 558.349,163.15 561.5,160.5C 564.63,163.98 568.463,165.98 573,166.5C 578.18,166.779 580.514,164.446 580,159.5C 578.581,158.54 577.081,157.707 575.5,157C 569.957,155.949 564.624,154.282 559.5,152C 553.855,145.872 553.022,139.038 557,131.5C 560.214,127.984 564.047,125.65 568.5,124.5 Z"/></g>
<g><path style="opacity:0.949" fill="#007eaf" d="M 764.5,124.5 C 791.455,124.42 801.622,137.42 795,163.5C 785.813,176.479 773.646,180.312 758.5,175C 745.447,168.046 740.614,157.213 744,142.5C 747.621,132.705 754.454,126.705 764.5,124.5 Z M 767.5,136.5 C 780.625,137.103 785.791,143.77 783,156.5C 777.642,164.932 770.476,166.765 761.5,162C 755.996,156.137 755.163,149.637 759,142.5C 761.322,139.605 764.155,137.605 767.5,136.5 Z"/></g>
<g><path style="opacity:0.898" fill="#007eaf" d="M 382.5,125.5 C 387.167,125.5 391.833,125.5 396.5,125.5C 396.5,142.167 396.5,158.833 396.5,175.5C 391.833,175.5 387.167,175.5 382.5,175.5C 382.5,158.833 382.5,142.167 382.5,125.5 Z"/></g>
<g><path style="opacity:0.941" fill="#007eaf" d="M 401.5,126.5 C 406.567,125.176 411.734,125.176 417,126.5C 421,137.167 425,147.833 429,158.5C 433.742,147.689 437.909,136.689 441.5,125.5C 446.167,125.5 450.833,125.5 455.5,125.5C 449.638,141.914 443.472,158.248 437,174.5C 431.886,175.804 426.719,175.804 421.5,174.5C 415.003,158.319 408.336,142.319 401.5,126.5 Z"/></g>
<g><path style="opacity:0.898" fill="#007eaf" d="M 602.5,125.5 C 607.167,125.5 611.833,125.5 616.5,125.5C 616.5,142.167 616.5,158.833 616.5,175.5C 611.833,175.5 607.167,175.5 602.5,175.5C 602.5,158.833 602.5,142.167 602.5,125.5 Z"/></g>
<g><path style="opacity:0.94" fill="#007eaf" d="M 663.5,125.5 C 668.43,125.197 673.263,125.531 678,126.5C 682.333,137.167 686.667,147.833 691,158.5C 694.735,147.795 698.568,137.129 702.5,126.5C 707.12,125.507 711.786,125.173 716.5,125.5C 708.55,148.519 699.716,171.186 690,193.5C 687.659,196.835 684.493,199.002 680.5,200C 675.129,200.676 669.796,200.509 664.5,199.5C 664.646,195.481 664.979,191.481 665.5,187.5C 676.106,190.525 682.106,186.525 683.5,175.5C 676.263,159.032 669.597,142.365 663.5,125.5 Z"/></g>
<g><path style="opacity:1" fill="#f6f8fa" d="M 79.5,132.5 C 85.8007,131.314 90.634,133.314 94,138.5C 94.8313,142.673 93.6647,146.173 90.5,149C 96.2631,154.103 96.9298,159.77 92.5,166C 79.2804,171.742 73.1137,167.575 74,153.5C 75.5,152 77,150.5 78.5,149C 74.7235,146.045 73.5568,142.212 75,137.5C 76.1932,135.503 77.6932,133.836 79.5,132.5 Z"/></g>
<g><path style="opacity:1" fill="#f0f4f7" d="M 108.5,132.5 C 121.478,131.806 125.645,137.472 121,149.5C 116.468,154.367 111.634,158.867 106.5,163C 112.157,163.499 117.824,163.666 123.5,163.5C 123.5,165.167 123.5,166.833 123.5,168.5C 115.833,168.5 108.167,168.5 100.5,168.5C 100.338,166.473 100.505,164.473 101,162.5C 106.333,157.167 111.667,151.833 117,146.5C 119.746,139.243 117.246,136.077 109.5,137C 108.313,138.019 107.313,139.186 106.5,140.5C 104.955,141.452 103.288,141.785 101.5,141.5C 102.016,136.995 104.349,133.995 108.5,132.5 Z"/></g>
<g><path style="opacity:1" fill="#f7f9fa" d="M 135.5,132.5 C 146.011,130.96 150.511,135.293 149,145.5C 147.833,146.667 146.667,147.833 145.5,149C 150.272,152.699 151.772,157.533 150,163.5C 144.529,169.039 138.362,169.872 131.5,166C 126.947,159.662 127.614,153.996 133.5,149C 127.799,142.711 128.465,137.211 135.5,132.5 Z"/></g>
<g><path style="opacity:1" fill="#f9fbfc" d="M 60.5,132.5 C 61.8333,132.5 63.1667,132.5 64.5,132.5C 64.5,144.5 64.5,156.5 64.5,168.5C 63.1667,168.5 61.8333,168.5 60.5,168.5C 60.8318,158.81 60.4984,149.144 59.5,139.5C 57.8333,140.833 56.1667,142.167 54.5,143.5C 53.354,142.855 52.354,142.022 51.5,141C 54.5743,138.151 57.5743,135.317 60.5,132.5 Z"/></g>
<g><path style="opacity:1" fill="#1b85b4" d="M 81.5,136.5 C 87.9886,135.632 90.4886,138.299 89,144.5C 85.6667,148.5 82.3333,148.5 79,144.5C 78.0182,141.225 78.8515,138.559 81.5,136.5 Z"/></g>
<g><path style="opacity:1" fill="#1a85b4" d="M 136.5,136.5 C 142.83,135.666 145.663,138.333 145,144.5C 141.667,148.5 138.333,148.5 135,144.5C 134.109,141.502 134.609,138.836 136.5,136.5 Z"/></g>
<g><path style="opacity:1" fill="#1182b2" d="M 81.5,151.5 C 88.8247,150.992 91.6581,154.326 90,161.5C 85.601,165.654 81.601,165.321 78,160.5C 76.9804,156.553 78.1471,153.553 81.5,151.5 Z"/></g>
<g><path style="opacity:1" fill="#1182b2" d="M 136.5,151.5 C 145.523,151.062 148.189,154.895 144.5,163C 136.246,166.081 132.746,163.248 134,154.5C 135.045,153.627 135.878,152.627 136.5,151.5 Z"/></g>
<g><path style="opacity:1" fill="#fdfdfd" d="M 100.5,178.5 C 132.274,196.223 163.941,214.223 195.5,232.5C 199.295,256.001 193.461,276.668 178,294.5C 155.658,318.403 130.158,338.069 101.5,353.5C 69.7178,336.888 42.2178,314.888 19,287.5C 6.36441,270.023 3.19775,251.189 9.5,231C 40.2229,213.978 70.5562,196.478 100.5,178.5 Z"/></g>
<g><path style="opacity:0.966" fill="#007fb0" d="M 570.5,195.5 C 574.833,195.5 579.167,195.5 583.5,195.5C 583.5,221.833 583.5,248.167 583.5,274.5C 579.167,274.5 574.833,274.5 570.5,274.5C 570.5,248.167 570.5,221.833 570.5,195.5 Z"/></g>
<g><path style="opacity:0.952" fill="#007eaf" d="M 942.5,195.5 C 946.833,195.5 951.167,195.5 955.5,195.5C 955.333,206.838 955.5,218.172 956,229.5C 963.421,221.726 971.921,220.559 981.5,226C 984.106,227.938 985.939,230.438 987,233.5C 988.427,247.107 988.927,260.774 988.5,274.5C 984.167,274.5 979.833,274.5 975.5,274.5C 975.759,263.131 975.259,251.797 974,240.5C 970.726,235.262 966.226,234.096 960.5,237C 958.951,238.214 957.785,239.714 957,241.5C 955.594,252.436 955.094,263.436 955.5,274.5C 951.167,274.5 946.833,274.5 942.5,274.5C 942.5,248.167 942.5,221.833 942.5,195.5 Z"/></g>
<g><path style="opacity:0.945" fill="#007eaf" d="M 284.5,198.5 C 296.55,197.666 306.55,201.666 314.5,210.5C 311.471,213.767 307.971,216.434 304,218.5C 291.524,208.74 279.857,209.74 269,221.5C 261.588,235.438 263.421,247.938 274.5,259C 285.885,266.017 295.885,264.517 304.5,254.5C 308.916,256.751 312.916,259.584 316.5,263C 304.608,275.713 290.274,279.38 273.5,274C 257.773,267.228 249.773,255.228 249.5,238C 250.152,214.858 261.819,201.691 284.5,198.5 Z"/></g>
<g><path style="opacity:0.963" fill="#007fb0" d="M 628.5,200.5 C 632.833,200.5 637.167,200.5 641.5,200.5C 641.5,220.833 641.5,241.167 641.5,261.5C 651.833,261.5 662.167,261.5 672.5,261.5C 672.5,265.833 672.5,270.167 672.5,274.5C 657.833,274.5 643.167,274.5 628.5,274.5C 628.5,249.833 628.5,225.167 628.5,200.5 Z"/></g>
<g><path style="opacity:0.938" fill="#007eaf" d="M 1002.5,200.5 C 1011.11,198.627 1015.28,201.96 1015,210.5C 1014.22,212.286 1013.05,213.786 1011.5,215C 1002.01,217.502 997.847,214.002 999,204.5C 999.69,202.65 1000.86,201.316 1002.5,200.5 Z"/></g>
<g><path style="opacity:1" fill="#c1262b" d="M 100.5,203.5 C 103.272,204.436 105.272,206.27 106.5,209C 104.8,212.232 102.966,215.399 101,218.5C 99.5455,215.088 97.7121,211.921 95.5,209C 97.3734,207.296 99.0401,205.463 100.5,203.5 Z"/></g>
<g><path style="opacity:0.95" fill="#007eaf" d="M 441.5,209.5 C 445.833,209.5 450.167,209.5 454.5,209.5C 454.5,214.5 454.5,219.5 454.5,224.5C 459.167,224.5 463.833,224.5 468.5,224.5C 468.5,228.167 468.5,231.833 468.5,235.5C 463.833,235.5 459.167,235.5 454.5,235.5C 454.09,244.25 454.59,252.916 456,261.5C 459.578,263.766 463.412,264.1 467.5,262.5C 468.491,266.445 468.824,270.445 468.5,274.5C 462.87,275.521 457.204,275.687 451.5,275C 446.333,273.833 443.167,270.667 442,265.5C 441.5,255.506 441.334,245.506 441.5,235.5C 438.167,235.5 434.833,235.5 431.5,235.5C 431.5,231.833 431.5,228.167 431.5,224.5C 434.833,224.5 438.167,224.5 441.5,224.5C 441.5,219.5 441.5,214.5 441.5,209.5 Z"/></g>
<g><path style="opacity:1" fill="#bf1b24" d="M 84.5,213.5 C 90.9614,212.141 95.4614,214.475 98,220.5C 98.4997,227.826 98.6663,235.159 98.5,242.5C 91.1636,244.175 85.497,248.175 81.5,254.5C 76.1477,253.105 70.8144,251.605 65.5,250C 57.5819,246.9 55.0819,241.4 58,233.5C 62.5011,228.5 68.0011,226.834 74.5,228.5C 75.6623,221.945 78.9956,216.945 84.5,213.5 Z"/></g>
<g><path style="opacity:1" fill="#bf1b25" d="M 110.5,213.5 C 120.968,212.967 126.301,217.967 126.5,228.5C 132.986,226.913 138.82,228.246 144,232.5C 147.337,237.677 146.837,242.511 142.5,247C 135.613,250.247 128.446,252.747 121,254.5C 117.521,248.349 112.354,244.516 105.5,243C 103.571,235.982 103.071,228.815 104,221.5C 105.305,218.039 107.471,215.372 110.5,213.5 Z"/></g>
<g><path style="opacity:0.925" fill="#007eaf" d="M 343.5,222.5 C 356.867,221.712 365.367,227.712 369,240.5C 369.994,245.118 370.494,249.785 370.5,254.5C 357.829,254.333 345.162,254.5 332.5,255C 335.785,262.476 341.452,265.476 349.5,264C 352.919,262.414 355.919,260.248 358.5,257.5C 361.167,259.5 363.833,261.5 366.5,263.5C 367.583,264.365 367.749,265.365 367,266.5C 357.314,275.793 346.147,277.959 333.5,273C 320.459,264.888 316.292,253.388 321,238.5C 325.62,229.037 333.12,223.704 343.5,222.5 Z M 340.5,233.5 C 349.15,231.814 354.484,235.147 356.5,243.5C 348.493,243.666 340.493,243.5 332.5,243C 334.34,239.005 337.006,235.838 340.5,233.5 Z"/></g>
<g><path style="opacity:0.946" fill="#007eaf" d="M 404.5,222.5 C 415.097,221.868 421.93,226.534 425,236.5C 425.5,249.162 425.667,261.829 425.5,274.5C 421.167,274.5 416.833,274.5 412.5,274.5C 412.856,263.119 412.356,251.785 411,240.5C 407.726,235.262 403.226,234.096 397.5,237C 395.951,238.214 394.785,239.714 394,241.5C 392.621,252.445 392.121,263.445 392.5,274.5C 388.167,274.5 383.833,274.5 379.5,274.5C 379.5,257.833 379.5,241.167 379.5,224.5C 383.833,224.5 388.167,224.5 392.5,224.5C 392.34,226.199 392.506,227.866 393,229.5C 395.943,225.456 399.776,223.122 404.5,222.5 Z"/></g>
<g><path style="opacity:0.918" fill="#007eaf" d="M 501.5,222.5 C 504.206,222.575 506.873,222.908 509.5,223.5C 509.5,227.833 509.5,232.167 509.5,236.5C 501.901,233.922 495.901,235.922 491.5,242.5C 490.523,253.115 490.19,263.781 490.5,274.5C 485.833,274.5 481.167,274.5 476.5,274.5C 476.5,257.833 476.5,241.167 476.5,224.5C 481.167,224.5 485.833,224.5 490.5,224.5C 490.343,225.873 490.51,227.207 491,228.5C 494.069,225.554 497.569,223.554 501.5,222.5 Z"/></g>
<g><path style="opacity:0.937" fill="#007eaf" d="M 533.5,222.5 C 540.262,222.292 546.596,223.792 552.5,227C 554.617,228.731 556.117,230.898 557,233.5C 558.427,247.107 558.927,260.774 558.5,274.5C 554.5,274.5 550.5,274.5 546.5,274.5C 546.66,272.801 546.494,271.134 546,269.5C 538.753,275.569 530.586,277.069 521.5,274C 513.39,269.936 510.557,263.436 513,254.5C 515.901,248.455 520.735,244.955 527.5,244C 533.778,242.812 540.112,242.312 546.5,242.5C 546.276,238.438 544.276,235.605 540.5,234C 533.718,232.443 527.718,233.943 522.5,238.5C 520.183,236.684 518.016,234.684 516,232.5C 515.837,230.613 516.671,229.113 518.5,228C 523.299,225.238 528.299,223.404 533.5,222.5 Z M 534.5,252.5 C 538.167,252.5 541.833,252.5 545.5,252.5C 545.789,260.383 541.955,264.716 534,265.5C 529.975,265.08 527.142,263.08 525.5,259.5C 526.128,257.742 527.128,256.242 528.5,255C 530.723,254.434 532.723,253.6 534.5,252.5 Z"/></g>
<g><path style="opacity:0.932" fill="#007eaf" d="M 698.5,222.5 C 705.262,222.292 711.596,223.792 717.5,227C 719.617,228.731 721.117,230.898 722,233.5C 723.427,247.107 723.927,260.774 723.5,274.5C 719.5,274.5 715.5,274.5 711.5,274.5C 711.66,272.801 711.494,271.134 711,269.5C 703.768,275.589 695.602,277.089 686.5,274C 678.39,269.936 675.557,263.436 678,254.5C 680.901,248.455 685.735,244.955 692.5,244C 698.778,242.812 705.112,242.312 711.5,242.5C 711.276,238.438 709.276,235.605 705.5,234C 698.718,232.443 692.718,233.943 687.5,238.5C 685.183,236.684 683.016,234.684 681,232.5C 680.837,230.613 681.671,229.113 683.5,228C 688.299,225.238 693.299,223.404 698.5,222.5 Z M 699.5,252.5 C 703.167,252.5 706.833,252.5 710.5,252.5C 710.789,260.383 706.955,264.716 699,265.5C 694.975,265.08 692.142,263.08 690.5,259.5C 691.128,257.742 692.128,256.242 693.5,255C 695.723,254.434 697.723,253.6 699.5,252.5 Z"/></g>
<g><path style="opacity:0.941" fill="#007eaf" d="M 759.5,222.5 C 769.386,221.519 776.219,225.519 780,234.5C 781.332,247.796 781.832,261.129 781.5,274.5C 776.833,274.5 772.167,274.5 767.5,274.5C 767.667,263.828 767.5,253.161 767,242.5C 766.403,237.452 763.57,235.118 758.5,235.5C 753.063,235.435 749.897,238.101 749,243.5C 748.5,253.828 748.334,264.161 748.5,274.5C 744.167,274.5 739.833,274.5 735.5,274.5C 735.5,257.833 735.5,241.167 735.5,224.5C 739.5,224.5 743.5,224.5 747.5,224.5C 746.813,230.599 748.146,231.099 751.5,226C 754.158,224.522 756.825,223.355 759.5,222.5 Z"/></g>
<g><path style="opacity:0.944" fill="#007eaf" d="M 813.5,222.5 C 818.637,222.494 823.637,223.327 828.5,225C 831.492,226.315 833.825,228.315 835.5,231C 833.05,234.453 830.217,237.62 827,240.5C 817.151,232.601 809.484,234.268 804,245.5C 802.532,255.698 806.866,261.698 817,263.5C 821.019,263.157 824.352,261.491 827,258.5C 829.667,261.167 832.333,263.833 835,266.5C 835.684,267.784 835.517,268.951 834.5,270C 823.403,276.929 812.07,277.262 800.5,271C 791.213,263.234 788.047,253.401 791,241.5C 794.696,230.58 802.196,224.247 813.5,222.5 Z"/></g>
<g><path style="opacity:0.928" fill="#007eaf" d="M 860.5,222.5 C 869.678,221.717 877.178,224.717 883,231.5C 883.92,234.101 884.587,236.768 885,239.5C 885.5,251.162 885.667,262.829 885.5,274.5C 881.5,274.5 877.5,274.5 873.5,274.5C 873.662,272.473 873.495,270.473 873,268.5C 867.332,275.044 860.165,277.211 851.5,275C 841.334,271.842 837.5,265.009 840,254.5C 842.695,248.73 847.195,245.23 853.5,244C 860.135,243.028 866.801,242.361 873.5,242C 872.949,237.782 870.616,235.116 866.5,234C 860.015,232.553 854.348,234.053 849.5,238.5C 846.257,236.452 844.09,233.785 843,230.5C 844.167,229.333 845.333,228.167 846.5,227C 851.127,224.956 855.794,223.456 860.5,222.5 Z M 861.5,252.5 C 865.167,252.5 868.833,252.5 872.5,252.5C 871.604,263.286 865.938,267.119 855.5,264C 851.5,261 851.5,258 855.5,255C 857.611,254.155 859.611,253.322 861.5,252.5 Z"/></g>
<g><path style="opacity:0.938" fill="#007eaf" d="M 911.5,222.5 C 919.918,221.719 926.918,224.385 932.5,230.5C 930.134,233.701 927.3,236.367 924,238.5C 921.213,236.189 918.046,234.522 914.5,233.5C 911.243,233.955 908.909,235.621 907.5,238.5C 908.364,240.197 909.697,241.363 911.5,242C 917.819,243.079 923.819,245.079 929.5,248C 936.46,256.564 935.793,264.564 927.5,272C 916.675,276.894 906.008,276.56 895.5,271C 894.313,269.981 893.313,268.814 892.5,267.5C 894.866,264.299 897.7,261.633 901,259.5C 904.492,262.163 908.325,264.163 912.5,265.5C 915.62,265.193 918.12,263.859 920,261.5C 920.711,259.633 920.211,258.133 918.5,257C 913.307,254.959 907.973,253.292 902.5,252C 899.063,250.895 896.563,248.728 895,245.5C 892.264,231.756 897.764,224.089 911.5,222.5 Z"/></g>
<g><path style="opacity:0.913" fill="#007eaf" d="M 1050.5,222.5 C 1053.21,222.575 1055.87,222.908 1058.5,223.5C 1058.5,227.833 1058.5,232.167 1058.5,236.5C 1050.9,233.922 1044.9,235.922 1040.5,242.5C 1039.52,253.115 1039.19,263.781 1039.5,274.5C 1034.83,274.5 1030.17,274.5 1025.5,274.5C 1025.5,257.833 1025.5,241.167 1025.5,224.5C 1030.17,224.5 1034.83,224.5 1039.5,224.5C 1039.34,225.873 1039.51,227.207 1040,228.5C 1043.07,225.554 1046.57,223.554 1050.5,222.5 Z"/></g>
<g><path style="opacity:0.929" fill="#007eaf" d="M 1112.5,240.5 C 1112.5,245.167 1112.5,249.833 1112.5,254.5C 1100.16,254.333 1087.83,254.5 1075.5,255C 1078.54,262.906 1084.21,265.906 1092.5,264C 1095.9,262.6 1098.74,260.433 1101,257.5C 1104.48,259.82 1107.65,262.487 1110.5,265.5C 1103.15,274.178 1093.82,277.344 1082.5,275C 1066.39,269.622 1059.89,258.455 1063,241.5C 1066.47,230.507 1073.97,224.34 1085.5,223C 1099.16,221.821 1108.16,227.654 1112.5,240.5 Z M 1083.5,233.5 C 1092.15,231.814 1097.48,235.147 1099.5,243.5C 1091.49,243.666 1083.49,243.5 1075.5,243C 1076.9,238.657 1079.57,235.49 1083.5,233.5 Z"/></g>
<g><path style="opacity:0.972" fill="#007fb0" d="M 1000.5,224.5 C 1004.83,224.5 1009.17,224.5 1013.5,224.5C 1013.5,241.167 1013.5,257.833 1013.5,274.5C 1009.17,274.5 1004.83,274.5 1000.5,274.5C 1000.5,257.833 1000.5,241.167 1000.5,224.5 Z"/></g>
<g><path style="opacity:1" fill="#c2272d" d="M 49.5,241.5 C 52.4308,243.764 55.0974,246.431 57.5,249.5C 54.32,250.437 51.1533,251.437 48,252.5C 46.0125,250.536 44.5125,248.203 43.5,245.5C 45.5654,244.143 47.5654,242.81 49.5,241.5 Z"/></g>
<g><path style="opacity:1" fill="#c2272c" d="M 151.5,241.5 C 159.377,242.964 160.543,246.631 155,252.5C 151.595,251.418 148.095,250.584 144.5,250C 147.2,247.412 149.533,244.579 151.5,241.5 Z"/></g>
<g><path style="opacity:1" fill="#be1a24" d="M 96.5,246.5 C 109.342,245.516 116.675,251.349 118.5,264C 115.092,280.371 105.758,285.038 90.5,278C 81.1667,268.667 81.1667,259.333 90.5,250C 92.7274,249.059 94.7274,247.892 96.5,246.5 Z"/></g>
<g><path style="opacity:1" fill="#be1a24" d="M 56.5,253.5 C 64.8637,254.759 72.8637,257.259 80.5,261C 79.5782,264.459 79.7449,267.959 81,271.5C 82.5168,274.343 84.0168,277.177 85.5,280C 81.9974,286 77.9974,291.667 73.5,297C 63.4741,301.653 57.8074,298.487 56.5,287.5C 56.2101,283.916 57.2101,280.75 59.5,278C 54.6667,275.833 51.1667,272.333 49,267.5C 47.6134,260.599 50.1134,255.933 56.5,253.5 Z"/></g>
<g><path style="opacity:1" fill="#bf1c25" d="M 139.5,253.5 C 152.18,253.311 156.346,258.978 152,270.5C 149.291,273.378 146.458,276.044 143.5,278.5C 148.115,285.622 147.448,292.122 141.5,298C 136.116,300.421 131.283,299.588 127,295.5C 123.251,290.338 119.751,285.004 116.5,279.5C 120.96,274.012 123.127,267.679 123,260.5C 128.624,258.243 134.124,255.91 139.5,253.5 Z"/></g>
<g><path style="opacity:1" fill="#be1a24" d="M 90.5,283.5 C 97.2937,286.141 104.127,286.141 111,283.5C 116.075,288.578 120.408,294.245 124,300.5C 124.943,312.875 119.443,317.041 107.5,313C 105.359,311.692 103.359,310.192 101.5,308.5C 95.19,314.659 88.19,315.826 80.5,312C 77.4794,308.1 76.9794,303.933 79,299.5C 82.5976,293.961 86.431,288.628 90.5,283.5 Z"/></g>
<g><path style="opacity:0.925" fill="#bd1a24" d="M 320.5,298.5 C 325.179,298.334 329.845,298.501 334.5,299C 338.207,299.936 341.374,301.769 344,304.5C 342.58,308.274 339.913,311.274 336,313.5C 326.199,306.719 318.866,308.719 314,319.5C 312.019,327.228 314.185,333.394 320.5,338C 326.637,340.588 331.97,339.421 336.5,334.5C 340.012,336.757 343.346,339.257 346.5,342C 337.264,350.877 326.597,352.877 314.5,348C 301.421,339.359 297.588,327.525 303,312.5C 306.67,304.984 312.503,300.317 320.5,298.5 Z"/></g>
<g><path style="opacity:0.928" fill="#bd1823" d="M 253.5,299.5 C 257.5,299.5 261.5,299.5 265.5,299.5C 265.333,310.838 265.5,322.172 266,333.5C 269.04,339.368 273.54,340.868 279.5,338C 281.487,336.681 282.654,334.848 283,332.5C 283.5,321.505 283.667,310.505 283.5,299.5C 287.5,299.5 291.5,299.5 295.5,299.5C 295.667,311.505 295.5,323.505 295,335.5C 291.96,345.867 284.96,350.867 274,350.5C 265.206,350.94 258.873,347.274 255,339.5C 253.556,326.24 253.056,312.907 253.5,299.5 Z"/></g>
<g><path style="opacity:0.913" fill="#bd1621" d="M 349.5,299.5 C 353.5,299.5 357.5,299.5 361.5,299.5C 361.5,312.5 361.5,325.5 361.5,338.5C 368.167,338.5 374.833,338.5 381.5,338.5C 381.5,342.167 381.5,345.833 381.5,349.5C 370.833,349.5 360.167,349.5 349.5,349.5C 349.5,332.833 349.5,316.167 349.5,299.5 Z"/></g>
<g><path style="opacity:1" fill="#c1262b" d="M 73.5,300.5 C 74.1239,300.917 74.4573,301.584 74.5,302.5C 74.2757,306.019 73.2757,309.185 71.5,312C 69.567,312.251 67.7337,312.751 66,313.5C 64.6081,310.722 64.1081,307.722 64.5,304.5C 67.9122,303.958 70.9122,302.625 73.5,300.5 Z"/></g>
<g><path style="opacity:1" fill="#c2272d" d="M 128.5,301.5 C 132.053,302.517 135.386,304.017 138.5,306C 137.565,308.381 137.232,310.881 137.5,313.5C 134.572,313.148 131.738,312.482 129,311.5C 128.502,308.183 128.335,304.85 128.5,301.5 Z"/></g>
<g><path style="opacity:0.905" fill="#bd1a24" d="M 399.5,313.5 C 410,312.511 415.833,317.178 417,327.5C 417.5,334.826 417.666,342.159 417.5,349.5C 413.241,349.997 409.241,349.331 405.5,347.5C 398.737,351.62 392.237,351.286 386,346.5C 381.804,339.162 383.304,333.328 390.5,329C 395.811,327.928 401.145,326.928 406.5,326C 401.594,321.313 396.761,321.479 392,326.5C 389.833,324.333 387.667,322.167 385.5,320C 389.493,316.179 394.159,314.012 399.5,313.5 Z M 400.5,334.5 C 402.5,334.5 404.5,334.5 406.5,334.5C 406.277,339.225 403.777,341.892 399,342.5C 393.437,339.198 393.937,336.531 400.5,334.5 Z"/></g>
<g><path style="opacity:0.929" fill="#bd1722" d="M 441.5,313.5 C 447.641,312.873 452.141,315.206 455,320.5C 456.42,330.086 456.92,339.753 456.5,349.5C 452.563,349.793 448.73,349.46 445,348.5C 445.781,341.156 445.447,333.823 444,326.5C 440.195,323.461 437.195,324.128 435,328.5C 434.5,335.492 434.334,342.492 434.5,349.5C 430.833,349.5 427.167,349.5 423.5,349.5C 423.5,337.833 423.5,326.167 423.5,314.5C 427.759,314.003 431.759,314.669 435.5,316.5C 437.604,315.481 439.604,314.481 441.5,313.5 Z"/></g>
</svg>
