<svg width="38" height="30" viewBox="0 0 38 30" fill="none" xmlns="http://www.w3.org/2000/svg">
<path d="M28.5975 11.2497H19.6905V14.5312C19.6905 16.8576 17.7978 18.7503 15.4714 18.7503C13.145 18.7503 11.2523 16.8576 11.2523 14.5312V7.40561L7.44923 9.69096C6.31828 10.3648 5.62681 11.5896 5.62681 12.9022V15.6739L0.938916 18.3811C0.0423556 18.8968 -0.268218 20.0453 0.253311 20.9419L4.94121 29.0637C5.45688 29.9602 6.60541 30.265 7.50197 29.7493L13.5611 26.251H21.5657C23.6342 26.251 25.316 24.5692 25.316 22.5006H26.2536C27.2908 22.5006 28.1287 21.6627 28.1287 20.6255V16.8752H28.5975C29.3769 16.8752 30.0039 16.2482 30.0039 15.4688V12.6561C30.0039 11.8767 29.3769 11.2497 28.5975 11.2497ZM37.2525 9.05809L32.5646 0.936312C32.049 0.0397515 30.9004 -0.264962 30.0039 0.250707L23.9448 3.74905H17.956C17.2528 3.74905 16.5672 3.94828 15.9695 4.31746L14.0064 5.54217C13.4556 5.88204 13.1274 6.48561 13.1274 7.13019V14.5312C13.1274 15.8262 14.1764 16.8752 15.4714 16.8752C16.7664 16.8752 17.8153 15.8262 17.8153 14.5312V9.37452H28.5975C30.4082 9.37452 31.879 10.8454 31.879 12.6561V14.3261L36.5669 11.6189C37.4635 11.0973 37.7682 9.95465 37.2525 9.05809Z" fill="#007FFF"/>
</svg>
