<svg width="30" height="30" viewBox="0 0 30 30" fill="none" xmlns="http://www.w3.org/2000/svg">
<path d="M22.8571 12.8571C24.9857 12.8571 26.9571 13.5286 28.5714 14.6571V8.57143C28.5714 6.98571 27.3 5.71429 25.7143 5.71429H20V2.85714C20 1.27143 18.7286 0 17.1429 0H11.4286C9.84286 0 8.57143 1.27143 8.57143 2.85714V5.71429H2.85714C1.27143 5.71429 0.0142857 6.98571 0.0142857 8.57143L0 24.2857C0 25.8714 1.27143 27.1429 2.85714 27.1429H13.8286C13.1038 25.6193 12.7765 23.9371 12.8773 22.2529C12.9782 20.5688 13.5037 18.9375 14.4051 17.5113C15.3065 16.0851 16.5543 14.9104 18.0322 14.0965C19.5101 13.2827 21.17 12.8563 22.8571 12.8571ZM11.4286 2.85714H17.1429V5.71429H11.4286V2.85714Z" fill="#007FFF"/>
<path d="M22.8572 15.7142C18.9144 15.7142 15.7144 18.9142 15.7144 22.8571C15.7144 26.7999 18.9144 29.9999 22.8572 29.9999C26.8001 29.9999 30.0001 26.7999 30.0001 22.8571C30.0001 18.9142 26.8001 15.7142 22.8572 15.7142ZM25.2144 26.2142L22.1429 23.1428V18.5714H23.5715V22.5571L26.2144 25.1999L25.2144 26.2142Z" fill="#007FFF"/>
</svg>
