<svg width="24" height="30" viewBox="0 0 24 30" fill="none" xmlns="http://www.w3.org/2000/svg">
<path d="M8.34287 7.42591C8.39148 7.46034 8.44999 7.47799 8.50953 7.47618C8.56907 7.47438 8.6264 7.45322 8.67283 7.41591C9.1147 7.12318 9.6465 6.99767 10.1726 7.06195C10.2082 7.06654 10.2443 7.06392 10.2788 7.05424C10.3133 7.04457 10.3456 7.02804 10.3736 7.00565C10.4015 6.98325 10.4247 6.95545 10.4418 6.92389C10.4588 6.89234 10.4693 6.85768 10.4726 6.82199C10.4799 6.75051 10.4589 6.67901 10.414 6.6229C10.3691 6.56679 10.304 6.53057 10.2326 6.52202C9.56358 6.43529 8.88624 6.60106 8.33287 6.98696C8.2993 7.01324 8.27233 7.04699 8.25409 7.08552C8.23586 7.12406 8.22687 7.16632 8.22784 7.20894C8.22881 7.25156 8.23971 7.29337 8.25968 7.33103C8.27965 7.3687 8.30814 7.40119 8.34287 7.42591ZM15.3429 7.42091C15.3897 7.45663 15.4467 7.47639 15.5056 7.47729C15.5645 7.47819 15.622 7.46018 15.6699 7.42591C15.7046 7.40129 15.7331 7.3689 15.7531 7.33132C15.7731 7.29373 15.784 7.252 15.7849 7.20945C15.7859 7.1669 15.7769 7.12471 15.7587 7.08625C15.7404 7.0478 15.7135 7.01414 15.6799 6.98796C15.1259 6.60339 14.4492 6.43742 13.7802 6.52202C13.71 6.53275 13.6468 6.57025 13.6038 6.62663C13.5608 6.68302 13.5413 6.7539 13.5494 6.82436C13.5576 6.89482 13.5928 6.95937 13.6475 7.00442C13.7023 7.04948 13.7724 7.07154 13.8431 7.06595C14.3695 7.00089 14.9016 7.12684 15.3429 7.42091ZM11.1275 10.9384L11.6474 9.23867C11.7674 8.86871 12.2973 8.86871 12.4273 9.23867L12.9473 10.9384C13.0473 11.2884 12.7873 11.6383 12.4273 11.6383H11.6474C11.2775 11.6383 11.0175 11.2884 11.1275 10.9384ZM12.0274 12.5982C11.4875 12.5982 10.9875 12.4682 10.5576 12.2483C10.4176 12.1683 10.2576 12.3383 10.3476 12.4782C10.5299 12.7576 10.7789 12.9871 11.0722 13.1459C11.3655 13.3047 11.6938 13.3879 12.0274 13.3879C12.3609 13.3879 12.6892 13.3047 12.9825 13.1459C13.2758 12.9871 13.5249 12.7576 13.7072 12.4782C13.7972 12.3383 13.6372 12.1783 13.4972 12.2483C13.0672 12.4682 12.5673 12.5982 12.0274 12.5982ZM8.1599 9.25866C8.30988 8.63875 8.8698 8.17881 9.53971 8.17881C10.2296 8.17881 10.8095 8.66874 10.9395 9.32865C10.9471 9.36273 10.9469 9.3981 10.9388 9.43206C10.9307 9.46603 10.9149 9.4977 10.8928 9.52468C10.8706 9.55167 10.8426 9.57325 10.8109 9.58779C10.7791 9.60233 10.7445 9.60945 10.7096 9.60862H10.6296C10.6496 9.52863 10.6596 9.44864 10.6596 9.36865C10.6596 8.86871 10.2596 8.45877 9.74969 8.45877C9.60974 8.45903 9.47174 8.49146 9.34633 8.55356C9.22092 8.61565 9.11146 8.70575 9.02642 8.81688C8.94137 8.92802 8.88302 9.05722 8.85586 9.1945C8.82871 9.33178 8.83348 9.47347 8.8698 9.60862H8.42986C8.24989 9.60862 8.1099 9.42864 8.1599 9.25866ZM15.8089 9.25866C15.6589 8.63875 15.099 8.17881 14.4291 8.17881C13.7292 8.17881 13.1592 8.66874 13.0293 9.32865C12.9993 9.47863 13.1092 9.60862 13.2592 9.60862H13.3392C13.3194 9.53016 13.3093 9.44957 13.3092 9.36865C13.3079 9.24879 13.3305 9.12987 13.3757 9.01887C13.421 8.90788 13.488 8.80704 13.5727 8.72228C13.6575 8.63752 13.7583 8.57055 13.8693 8.5253C13.9803 8.48005 14.0992 8.45743 14.2191 8.45877C14.359 8.45903 14.497 8.49146 14.6225 8.55356C14.7479 8.61565 14.8573 8.70575 14.9424 8.81688C15.0274 8.92802 15.0858 9.05722 15.1129 9.1945C15.1401 9.33178 15.1353 9.47347 15.099 9.60862H15.5389C15.7189 9.60862 15.8489 9.43864 15.8089 9.25866Z" fill="#007FFF"/>
<path d="M10.2678 9.35866C10.2678 9.0687 10.0378 8.83873 9.74786 8.83873C9.67789 8.83836 9.60854 8.85196 9.54389 8.87873C9.56108 8.89382 9.57483 8.91242 9.58421 8.93328C9.5936 8.95414 9.59841 8.97677 9.5983 8.99965C9.5982 9.02252 9.5932 9.04511 9.58362 9.06588C9.57405 9.08666 9.56013 9.10514 9.54281 9.12008C9.52549 9.13502 9.50517 9.14607 9.48321 9.15249C9.46126 9.15891 9.43818 9.16054 9.41554 9.15728C9.3929 9.15402 9.37122 9.14595 9.35196 9.1336C9.33271 9.12125 9.31633 9.10492 9.30392 9.0857C9.2573 9.16258 9.23133 9.2502 9.22853 9.34006C9.22572 9.42993 9.24618 9.519 9.28792 9.59863H10.2078C10.2478 9.52864 10.2678 9.44865 10.2678 9.35866ZM14.0273 8.87373C14.126 8.83277 14.235 8.82349 14.3393 8.84716C14.4435 8.87084 14.5378 8.92629 14.6091 9.00587C14.6805 9.08546 14.7254 9.18523 14.7375 9.29141C14.7497 9.3976 14.7287 9.50495 14.6772 9.59863H13.7573C13.7139 9.51604 13.6934 9.42332 13.698 9.33012C13.7025 9.23691 13.732 9.14664 13.7833 9.0687C13.7939 9.09022 13.8091 9.10911 13.8279 9.12395C13.8467 9.1388 13.8686 9.14923 13.892 9.15448C13.9154 9.15972 13.9396 9.15965 13.963 9.15426C13.9863 9.14888 14.0082 9.13831 14.0269 9.12335C14.0456 9.10839 14.0607 9.08942 14.0711 9.06783C14.0815 9.04625 14.087 9.0226 14.087 8.99864C14.087 8.97467 14.0817 8.95101 14.0714 8.92939C14.061 8.90777 14.046 8.88875 14.0273 8.87373Z" fill="#007FFF"/>
<path d="M22.9971 30H0.999976C0.734794 30 0.480474 29.8947 0.292963 29.7071C0.105451 29.5196 0.000108112 29.2653 0.000108112 29.0001V25.5006C-0.00928204 23.2951 0.593194 21.1302 1.74055 19.2466C2.88791 17.3629 4.53519 15.8344 6.49925 14.831C6.2526 14.3311 6.09011 13.794 6.01831 13.2412L5.92832 11.8714C5.56667 11.6827 5.25328 11.4133 5.01238 11.0841C4.77149 10.7549 4.60955 10.3747 4.53909 9.97289C4.46862 9.57109 4.49153 9.15847 4.60603 8.76694C4.72054 8.37541 4.92357 8.01547 5.19942 7.71495V7.65296C5.19423 7.53703 5.15607 7.425 5.08943 7.33C4.79766 6.90314 4.60839 6.41468 4.53635 5.90268C4.46432 5.39068 4.51147 4.86896 4.67413 4.37816C4.83679 3.88737 5.11057 3.44076 5.47414 3.07313C5.83771 2.7055 6.28126 2.42677 6.77021 2.25867C7.12957 2.13609 7.43526 1.8926 7.6351 1.56976C8.06568 0.897763 8.71897 0.398683 9.48054 0.159939C10.2421 -0.0788048 11.0634 -0.0419904 11.8005 0.263934C11.9415 0.319789 12.0988 0.317993 12.2385 0.258935C12.9844 -0.0501302 13.8159 -0.0836353 14.5843 0.164417C15.3526 0.412469 16.0076 0.925884 16.4319 1.61276C16.6229 1.91772 16.9169 2.14569 17.2608 2.25367C18.0358 2.51052 18.6885 3.04466 19.0936 3.75347C19.4115 4.30895 19.5654 4.94319 19.5375 5.5826C19.5095 6.22201 19.3008 6.84039 18.9356 7.36599C18.8785 7.45567 18.848 7.55967 18.8476 7.66595V7.72895C19.1172 8.02593 19.3161 8.38006 19.4294 8.76481C19.5427 9.14957 19.5675 9.55497 19.5019 9.95065C19.4363 10.3463 19.282 10.7221 19.0506 11.0497C18.8192 11.3773 18.5167 11.6483 18.1657 11.8424L18.0877 13.1722C18.0136 13.7634 17.8409 14.338 17.5768 14.872C19.5188 15.8844 21.1449 17.4114 22.2773 19.286C23.4096 21.1606 24.0045 23.3106 23.9969 25.5006V29.0001C23.9969 29.2653 23.8916 29.5196 23.7041 29.7071C23.5166 29.8947 23.2622 30 22.9971 30ZM9.28788 28.0003H10.0808L11.2876 20.1173L10.8677 19.2144L10.2098 19.7374C10.0826 19.8417 9.9282 19.9074 9.76487 19.9269C9.60154 19.9464 9.43604 19.9188 9.28788 19.8473V28.0003ZM14.7072 28.0003V19.8463C14.5592 19.9182 14.3938 19.9462 14.2304 19.927C14.0671 19.9079 13.9126 19.8424 13.7853 19.7384L13.1094 19.2004L12.6874 20.1173L13.8863 28.0003H14.7072ZM8.86394 14.814L9.51785 15.154C9.69683 15.246 9.8838 15.3239 10.0778 15.3839L10.0878 15.3869C10.4077 15.4849 10.7477 15.5379 11.0976 15.5379H12.9974C13.3083 15.5379 13.6103 15.4959 13.8983 15.4179L13.9153 15.4129C14.1142 15.3579 14.3062 15.2859 14.4902 15.197L15.1491 14.878L15.2001 14.842C15.2385 14.7658 15.2866 14.6949 15.3431 14.631C15.753 14.1671 16.013 13.5922 16.094 12.9793L16.21 11.0795C16.2239 10.86 16.3098 10.6511 16.4544 10.4854C16.599 10.3196 16.7942 10.2062 17.0099 10.1626C17.1356 10.1369 17.2511 10.075 17.3422 9.98458C17.4333 9.89418 17.4961 9.77917 17.5228 9.65363C17.5496 9.5281 17.5391 9.3975 17.4927 9.27781C17.4464 9.15812 17.3661 9.05455 17.2618 8.97978C17.0671 8.83933 16.9294 8.63348 16.8739 8.39986H16.8639L16.8659 8.36186C16.8533 8.2983 16.8469 8.23368 16.8469 8.16889V7.66895C16.8469 7.41499 16.8849 7.16402 16.9579 6.92405C16.9199 6.45811 16.5189 6.06317 15.988 6.03917H14.5152C13.3293 6.03917 12.2285 5.37726 11.7236 4.3144L11.7176 4.3034L11.7136 4.2924C11.696 4.25801 11.6692 4.2292 11.6362 4.20923C11.6032 4.18926 11.5652 4.17894 11.5266 4.17942H10.1798C8.47999 4.17942 7.14816 5.48624 7.14816 7.05904V7.16702C7.18016 7.327 7.19816 7.48898 7.19916 7.65296V8.15889C7.19899 8.31854 7.1606 8.47583 7.08719 8.6176C7.01378 8.75937 6.90749 8.8815 6.77721 8.97378C6.67043 9.04911 6.58842 9.15445 6.54157 9.27644C6.49472 9.39844 6.48515 9.53159 6.51406 9.65903C6.54298 9.78648 6.60908 9.90246 6.70399 9.99229C6.7989 10.0821 6.91834 10.1418 7.04718 10.1636C7.26927 10.2012 7.47215 10.3127 7.62296 10.48C7.77377 10.6474 7.86366 10.8607 7.87807 11.0855L8.00405 13.0462C8.09204 13.6252 8.343 14.1661 8.72695 14.608C8.78095 14.671 8.82694 14.74 8.86394 14.814ZM13.2604 16.5318C13.1804 16.5358 13.1014 16.5378 13.0214 16.5378H11.0366C10.9282 16.5378 10.8199 16.5341 10.7117 16.5268C10.8983 16.7914 11.1624 16.9915 11.4676 17.0997C11.7876 17.212 12.1354 17.2173 12.4587 17.1149C12.782 17.0124 13.0633 16.8078 13.2604 16.5318ZM15.707 15.7079V28.9861L18.4567 21.1272C18.5766 20.7672 18.4867 20.3773 18.2167 20.1173L16.8569 18.7875C16.819 18.7507 16.793 18.7034 16.7825 18.6516C16.772 18.5999 16.7773 18.5462 16.7979 18.4975C16.8184 18.4489 16.8532 18.4075 16.8976 18.379C16.942 18.3505 16.9941 18.336 17.0469 18.3375H18.0967C18.3067 18.3375 18.4467 18.1176 18.3567 17.9276L17.1268 15.3079L17.1228 15.2999C16.9059 15.212 16.6859 15.13 16.4629 15.056C16.2355 15.3002 15.982 15.5188 15.707 15.7079ZM9.78781 16.9397V18.7965L10.8727 17.9336L10.8427 17.9196C10.4046 17.7005 10.0385 17.3605 9.78781 16.9397ZM14.2072 18.7965V16.9047C13.9529 17.3465 13.5728 17.7026 13.1154 17.9276L14.2072 18.7965ZM6.91119 15.2809L6.90819 15.2879L5.63836 17.9776C5.54837 18.1676 5.69835 18.3875 5.90833 18.3875H6.95819C7.19816 18.3875 7.30814 18.6775 7.14816 18.8375L5.78834 20.1673C5.52838 20.4273 5.42839 20.8172 5.55837 21.1672L8.28801 28.9861H8.29801V15.6709C8.03696 15.486 7.796 15.2742 7.57911 15.039C7.35314 15.112 7.13016 15.193 6.91119 15.2809Z" fill="#007FFF"/>
</svg>
