<svg width="34" height="30" viewBox="0 0 34 30" fill="none" xmlns="http://www.w3.org/2000/svg">
<path d="M27.62 19.5599C28.1982 18.1558 28.512 16.6525 28.512 15.0006C28.512 13.8112 28.3303 12.6714 28.0164 11.6142C26.9427 11.862 25.8194 11.9941 24.6465 11.9941C22.2446 11.9967 19.8773 11.4218 17.7441 10.3178C15.6109 9.21385 13.7744 7.61319 12.3894 5.6508C10.9077 9.23573 8.11275 12.1194 4.5758 13.7121C4.50972 14.1251 4.50972 14.5711 4.50972 15.0006C4.50972 16.5777 4.82036 18.1394 5.42389 19.5964C6.02741 21.0535 6.91202 22.3774 8.0272 23.4926C10.2794 25.7448 13.334 27.01 16.5191 27.01C18.2536 27.01 19.9221 26.6301 21.4253 25.9528C22.3669 27.7534 22.7964 28.6454 22.7634 28.6454C20.0542 29.554 17.9563 30 16.5191 30C12.5215 30 8.70558 28.4307 5.89733 25.6059C4.18925 23.9031 2.91954 21.8115 2.19704 19.5103H0V11.9941H1.80059C2.34612 9.33871 3.60033 6.8805 5.43015 4.88033C7.25997 2.88016 9.59713 1.41266 12.1936 0.633535C14.7902 -0.145589 17.5492 -0.207267 20.1779 0.455042C22.8066 1.11735 25.207 2.47894 27.1244 4.39534C29.2062 6.46891 30.6262 9.11337 31.2046 11.9941H33.0383V19.5103H32.9392L27.0583 24.9121L18.3032 23.921V21.1623H26.2819L27.62 19.5599ZM12.0094 14.6207C12.505 14.6207 12.984 14.8189 13.3309 15.1823C13.6796 15.5338 13.8752 16.0088 13.8752 16.5039C13.8752 16.9989 13.6796 17.4739 13.3309 17.8254C12.984 18.1723 12.505 18.3705 12.0094 18.3705C10.9687 18.3705 10.1262 17.5446 10.1262 16.5039C10.1262 15.4632 10.9687 14.6207 12.0094 14.6207ZM21.0123 14.6207C22.053 14.6207 22.879 15.4632 22.879 16.5039C22.879 17.5446 22.053 18.3705 21.0123 18.3705C19.9716 18.3705 19.1292 17.5446 19.1292 16.5039C19.1292 16.0044 19.3276 15.5254 19.6807 15.1723C20.0339 14.8191 20.5129 14.6207 21.0123 14.6207Z" fill="#007FFF"/>
</svg>
