<svg width="32" height="32" viewBox="0 0 32 32" fill="none" xmlns="http://www.w3.org/2000/svg">
<path d="M7.11116 16.8888V9.77771H4.4445C3.73725 9.77771 3.05898 10.0587 2.55888 10.5588C2.05878 11.0589 1.77783 11.7371 1.77783 12.4444V28.4444C1.77915 28.6095 1.82642 28.7709 1.91434 28.9106C2.00226 29.0504 2.12736 29.1629 2.27561 29.2355C2.41844 29.3004 2.57591 29.3264 2.73203 29.3108C2.88815 29.2952 3.03736 29.2385 3.1645 29.1466L7.74228 25.7777H19.6889C20.0258 25.7877 20.3612 25.7284 20.6742 25.6034C20.9873 25.4785 21.2713 25.2907 21.5088 25.0515C21.7463 24.8124 21.9322 24.527 22.0549 24.2131C22.1776 23.8992 22.2346 23.5634 22.2223 23.2266V22.2222H12.4445C11.03 22.2222 9.67346 21.6603 8.67326 20.6601C7.67307 19.6599 7.11116 18.3033 7.11116 16.8888Z" fill="#007FFF"/>
<path d="M27.5556 3.55554H12.4445C11.7373 3.55554 11.059 3.83649 10.5589 4.33659C10.0588 4.83669 9.77783 5.51496 9.77783 6.22221V16.8889C9.77783 17.5961 10.0588 18.2744 10.5589 18.7745C11.059 19.2746 11.7373 19.5555 12.4445 19.5555H24.4889L28.7378 22.8533C28.8641 22.9467 29.0129 23.005 29.1691 23.0221C29.3252 23.0393 29.4831 23.0148 29.6267 22.9511C29.778 22.8791 29.9058 22.7657 29.9955 22.6242C30.0851 22.4826 30.1329 22.3186 30.1334 22.1511V6.22221C30.1338 5.5301 29.8651 4.86495 29.384 4.36733C28.903 3.86972 28.2473 3.57861 27.5556 3.55554Z" fill="#007FFF"/>
</svg>
